<?xml version="1.0" encoding="iso-8859-1"?>
<!-- Generator: Adobe Illustrator 19.0.0, SVG Export Plug-In . SVG Version: 6.00 Build 0)  -->
<svg version="1.1" id="Capa_1" xmlns="http://www.w3.org/2000/svg" xmlns:xlink="http://www.w3.org/1999/xlink" x="0px" y="0px"
	 viewBox="0 0 477.867 477.867" style="enable-background:new 0 0 477.867 477.867;" xml:space="preserve">
<g>
	<g>
		<path d="M460.8,307.2H151.706L119.347,32.137c-1.012-8.593-8.295-15.069-16.947-15.07H17.067C7.641,17.067,0,24.708,0,34.133
			S7.641,51.2,17.067,51.2h70.161l32.427,275.064c1.009,8.567,8.253,15.034,16.879,15.07H460.8c9.426,0,17.067-7.641,17.067-17.067
			S470.226,307.2,460.8,307.2z"/>
	</g>
</g>
<g>
	<g>
		<path d="M187.733,358.4c-28.277,0-51.2,22.923-51.2,51.2s22.923,51.2,51.2,51.2c28.277,0,51.2-22.923,51.2-51.2
			S216.01,358.4,187.733,358.4z M187.733,426.667c-9.426,0-17.067-7.641-17.067-17.067s7.641-17.067,17.067-17.067
			c9.426,0,17.067,7.641,17.067,17.067S197.159,426.667,187.733,426.667z"/>
	</g>
</g>
<g>
	<g>
		<path d="M392.533,358.4c-28.277,0-51.2,22.923-51.2,51.2s22.923,51.2,51.2,51.2s51.2-22.923,51.2-51.2S420.81,358.4,392.533,358.4
			z M392.533,426.667c-9.426,0-17.067-7.641-17.067-17.067s7.641-17.067,17.067-17.067S409.6,400.174,409.6,409.6
			S401.959,426.667,392.533,426.667z"/>
	</g>
</g>
<g>
	<g>
		<path d="M460.8,17.067H170.667c-9.426,0.004-17.064,7.648-17.06,17.073c0,0.866,0.067,1.731,0.198,2.588l34.133,221.867
			c1.28,8.324,8.44,14.469,16.862,14.473h256c9.426,0,17.067-7.641,17.067-17.067V34.133
			C477.867,24.708,470.226,17.067,460.8,17.067z M273.067,238.933h-53.623l-5.257-34.133h58.88V238.933z M273.067,170.667H208.93
			l-5.24-34.133h69.376V170.667z M273.067,102.4h-74.633l-7.868-51.2h82.5V102.4z M358.4,238.933h-51.2V204.8h51.2V238.933z
			 M358.4,170.667h-51.2v-34.133h51.2V170.667z M358.4,102.4h-51.2V51.2h51.2V102.4z M443.733,238.933h-51.2V204.8h51.2V238.933z
			 M443.733,170.667h-51.2v-34.133h51.2V170.667z M443.733,102.4h-51.2V51.2h51.2V102.4z"/>
	</g>
</g>
<g>
</g>
<g>
</g>
<g>
</g>
<g>
</g>
<g>
</g>
<g>
</g>
<g>
</g>
<g>
</g>
<g>
</g>
<g>
</g>
<g>
</g>
<g>
</g>
<g>
</g>
<g>
</g>
<g>
</g>
</svg>
