<?xml version="1.0" encoding="iso-8859-1"?>
<!-- Generator: Adobe Illustrator 19.0.0, SVG Export Plug-In . SVG Version: 6.00 Build 0)  -->
<svg version="1.1" id="Capa_1" xmlns="http://www.w3.org/2000/svg" xmlns:xlink="http://www.w3.org/1999/xlink" x="0px" y="0px"
	 viewBox="0 0 480.499 480.499" style="enable-background:new 0 0 480.499 480.499;" xml:space="preserve">
<g>
	<g>
		<path d="M426.367,343.517c-24.793-5.621-50.674,2.775-67.445,21.88l-223.42-111.718c2.071-9.399,2.071-19.136,0-28.535
			l223.42-111.718c12.838,14.916,31.52,23.523,51.2,23.586c37.834,0.132,68.612-30.432,68.744-68.267
			C478.998,30.91,448.434,0.132,410.6,0c-37.834-0.132-68.612,30.432-68.744,68.267c-0.017,4.957,0.503,9.901,1.553,14.745
			L119.989,194.73c-24.676-28.505-67.789-31.61-96.294-6.933c-28.505,24.676-31.61,67.789-6.933,96.294s67.789,31.61,96.294,6.933
			c2.474-2.142,4.791-4.459,6.933-6.933l223.42,111.718c-8.468,37.349,14.944,74.49,52.293,82.958s74.49-14.944,82.958-52.293
			S463.716,351.985,426.367,343.517z M410.123,34.611c18.851-0.104,34.217,15.093,34.321,33.944
			c0.104,18.851-15.093,34.217-33.944,34.321c-12.958,0.072-24.839-7.2-30.67-18.772v-0.239c0-0.102-0.171-0.171-0.222-0.273
			c-2.328-4.607-3.565-9.687-3.618-14.848C375.989,49.893,391.271,34.611,410.123,34.611z M99.39,254.344
			c0,0.102-0.154,0.171-0.222,0.29v0.239c-5.794,11.455-17.541,18.675-30.379,18.671c-18.851,0.104-34.217-15.093-34.321-33.944
			c-0.104-18.851,15.093-34.217,33.944-34.321c12.958-0.072,24.839,7.2,30.67,18.772v0.239c0.085,0.154,0.222,0.273,0.307,0.427
			C104.088,234.034,104.088,245.027,99.39,254.344z M410.123,444.211c-18.851,0-34.133-15.282-34.133-34.133
			c0.014-5.098,1.181-10.128,3.413-14.711c0.102-0.171,0.239-0.29,0.324-0.461v-0.239c5.783-11.481,17.541-18.723,30.396-18.722
			c18.851,0,34.133,15.282,34.133,34.133S428.974,444.211,410.123,444.211z"/>
	</g>
</g>
<g>
</g>
<g>
</g>
<g>
</g>
<g>
</g>
<g>
</g>
<g>
</g>
<g>
</g>
<g>
</g>
<g>
</g>
<g>
</g>
<g>
</g>
<g>
</g>
<g>
</g>
<g>
</g>
<g>
</g>
</svg>
