<?xml version="1.0" encoding="iso-8859-1"?>
<!-- Generator: Adobe Illustrator 19.0.0, SVG Export Plug-In . SVG Version: 6.00 Build 0)  -->
<svg version="1.1" id="Capa_1" xmlns="http://www.w3.org/2000/svg" xmlns:xlink="http://www.w3.org/1999/xlink" x="0px" y="0px"
	 viewBox="0 0 477.875 477.875" style="enable-background:new 0 0 477.875 477.875;" xml:space="preserve">
<g>
	<g>
		<path d="M238.933,0.004c-56.554,0-102.4,45.846-102.4,102.4v68.267c0.056,56.531,45.869,102.344,102.4,102.4
			c56.531-0.056,102.344-45.869,102.4-102.4v-68.267C341.333,45.85,295.487,0.004,238.933,0.004z M307.2,170.671
			c0,37.703-30.564,68.267-68.267,68.267s-68.267-30.564-68.267-68.267v-68.267c0-37.703,30.564-68.267,68.267-68.267
			S307.2,64.701,307.2,102.404V170.671z"/>
	</g>
</g>
<g>
	<g>
		<path d="M415.657,281.295c-12.705-5.424-26.376-8.222-40.191-8.225c-29.075,0.022-56.762,12.438-76.117,34.133H170.667
			c-1.834,0.004-3.655,0.304-5.393,0.888l-72.653,24.218C37.276,350.697-0.053,402.485,0,460.804
			c0,9.426,7.641,17.067,17.067,17.067H460.8c9.426,0,17.067-7.641,17.067-17.067c-0.1-15.407-2.889-30.677-8.243-45.124
			C491.83,363.668,467.669,303.502,415.657,281.295z M35.567,443.737c6.272-36.87,32.366-67.276,67.857-79.07l70.007-23.33H279.04
			c-1.866,5.227-3.299,10.598-4.284,16.06c-0.102,0.631-0.171,1.263-0.29,1.894c-0.891,5.348-1.359,10.758-1.399,16.179
			c0.029,6.075,0.6,12.135,1.707,18.108c0,0.512,0.137,1.024,0.222,1.519c1.104,5.525,2.668,10.949,4.676,16.213
			c0.256,0.7,0.495,1.399,0.768,2.099c2.013,5.01,4.427,9.85,7.219,14.473l1.314,2.167c2.839,4.475,6.017,8.726,9.506,12.715
			c0.256,0.307,0.461,0.666,0.717,0.973H35.567z M436.156,406.088c-0.102,0.171-0.256,0.307-0.358,0.495
			c-4.112,7.932-9.716,14.995-16.503,20.804c-0.751,0.614-1.468,1.246-2.236,1.826c-1.833,1.459-3.741,2.82-5.717,4.079
			c-2.2,1.369-4.48,2.605-6.827,3.703c-1.707,0.819-3.413,1.536-5.12,2.202c-2.668,1.022-5.398,1.871-8.175,2.543
			c-1.212,0.29-2.424,0.563-3.652,0.785c-36.659,7.024-72.071-17-79.095-53.658c-1.618-8.446-1.61-17.123,0.025-25.565
			c0.358-1.911,0.905-3.772,1.434-5.649s0.99-3.413,1.604-5.12c0.944-2.565,2.038-5.073,3.277-7.509
			c0.307-0.631,0.666-1.246,1.007-1.86c1.596-2.963,3.392-5.814,5.376-8.533v-0.102c12.787-17.136,32.891-27.258,54.272-27.324
			c37.703,0,68.267,30.564,68.267,68.267C443.666,386.132,441.069,396.626,436.156,406.088z"/>
	</g>
</g>
<g>
	<g>
		<path d="M409.6,358.404h-68.267c-9.426,0-17.067,7.641-17.067,17.067c0,9.426,7.641,17.067,17.067,17.067H409.6
			c9.426,0,17.067-7.641,17.067-17.067C426.667,366.045,419.026,358.404,409.6,358.404z"/>
	</g>
</g>
<g>
</g>
<g>
</g>
<g>
</g>
<g>
</g>
<g>
</g>
<g>
</g>
<g>
</g>
<g>
</g>
<g>
</g>
<g>
</g>
<g>
</g>
<g>
</g>
<g>
</g>
<g>
</g>
<g>
</g>
</svg>
