<?xml version="1.0" encoding="iso-8859-1"?>
<!-- Generator: Adobe Illustrator 19.0.0, SVG Export Plug-In . SVG Version: 6.00 Build 0)  -->
<svg version="1.1" id="Capa_1" xmlns="http://www.w3.org/2000/svg" xmlns:xlink="http://www.w3.org/1999/xlink" x="0px" y="0px"
	 viewBox="0 0 477.867 477.867" style="enable-background:new 0 0 477.867 477.867;" xml:space="preserve">
<g>
	<g>
		<path d="M460.8,119.467h-85.333v-102.4C375.467,7.641,367.826,0,358.4,0H119.467C110.041,0,102.4,7.641,102.4,17.067v102.4H17.067
			C7.641,119.467,0,127.108,0,136.533V358.4c0,9.426,7.641,17.067,17.067,17.067H102.4V460.8c0,9.426,7.641,17.067,17.067,17.067
			H358.4c9.426,0,17.067-7.641,17.067-17.067v-85.333H460.8c9.426,0,17.067-7.641,17.067-17.067V136.533
			C477.867,127.108,470.226,119.467,460.8,119.467z M136.533,34.133h204.8v85.333h-204.8V34.133z M341.333,443.733h-204.8v-153.6
			h204.8V443.733z M443.733,341.333h-68.267v-51.2h17.067c9.426,0,17.067-7.641,17.067-17.067S401.959,256,392.533,256h-307.2
			c-9.426,0-17.067,7.641-17.067,17.067s7.641,17.067,17.067,17.067H102.4v51.2H34.133V153.6h409.6V341.333z"/>
	</g>
</g>
<g>
	<g>
		<path d="M409.6,187.733h-17.067c-9.426,0-17.067,7.641-17.067,17.067s7.641,17.067,17.067,17.067H409.6
			c9.426,0,17.067-7.641,17.067-17.067S419.026,187.733,409.6,187.733z"/>
	</g>
</g>
<g>
	<g>
		<path d="M290.133,324.267h-102.4c-9.426,0-17.067,7.641-17.067,17.067s7.641,17.067,17.067,17.067h102.4
			c9.426,0,17.067-7.641,17.067-17.067S299.559,324.267,290.133,324.267z"/>
	</g>
</g>
<g>
	<g>
		<path d="M290.133,375.467h-102.4c-9.426,0-17.067,7.641-17.067,17.067s7.641,17.067,17.067,17.067h102.4
			c9.426,0,17.067-7.641,17.067-17.067S299.559,375.467,290.133,375.467z"/>
	</g>
</g>
<g>
</g>
<g>
</g>
<g>
</g>
<g>
</g>
<g>
</g>
<g>
</g>
<g>
</g>
<g>
</g>
<g>
</g>
<g>
</g>
<g>
</g>
<g>
</g>
<g>
</g>
<g>
</g>
<g>
</g>
</svg>
