<?xml version="1.0" encoding="iso-8859-1"?>
<!-- Generator: Adobe Illustrator 19.0.0, SVG Export Plug-In . SVG Version: 6.00 Build 0)  -->
<svg version="1.1" id="Capa_1" xmlns="http://www.w3.org/2000/svg" xmlns:xlink="http://www.w3.org/1999/xlink" x="0px" y="0px"
	 viewBox="0 0 477.863 477.863" style="enable-background:new 0 0 477.863 477.863;" xml:space="preserve">
<g>
	<g>
		<path d="M472.864,90.33L387.53,4.997c-6.664-6.663-17.468-6.663-24.132,0l-39.134,39.134L285.13,4.997
			c-6.665-6.663-17.468-6.663-24.132,0L141.531,124.464c-6.78,6.548-6.968,17.353-0.419,24.132
			c6.548,6.78,17.352,6.968,24.132,0.419c0.142-0.137,0.282-0.277,0.419-0.419L273.064,41.195l27.068,27.068L22.065,346.33
			c-2.514,2.517-4.179,5.757-4.762,9.267l-17.067,102.4c-1.546,9.298,4.739,18.089,14.037,19.635
			c0.922,0.153,1.856,0.231,2.791,0.231c0.944-0.004,1.885-0.084,2.816-0.239l102.4-17.067c3.504-0.586,6.737-2.25,9.25-4.762
			l341.333-341.333C479.526,107.798,479.526,96.995,472.864,90.33z M111.272,427.789l-73.387,12.237l12.254-73.387l137.591-137.711
			l61.201,61.201L111.272,427.789z M273.064,265.997l-61.201-61.201L375.464,41.195l61.201,61.201L273.064,265.997z"/>
	</g>
</g>
<g>
</g>
<g>
</g>
<g>
</g>
<g>
</g>
<g>
</g>
<g>
</g>
<g>
</g>
<g>
</g>
<g>
</g>
<g>
</g>
<g>
</g>
<g>
</g>
<g>
</g>
<g>
</g>
<g>
</g>
</svg>
