<?xml version="1.0" encoding="iso-8859-1"?>
<!-- Generator: Adobe Illustrator 19.0.0, SVG Export Plug-In . SVG Version: 6.00 Build 0)  -->
<svg version="1.1" id="Capa_1" xmlns="http://www.w3.org/2000/svg" xmlns:xlink="http://www.w3.org/1999/xlink" x="0px" y="0px"
	 viewBox="0 0 458.259 458.259" style="enable-background:new 0 0 458.259 458.259;" xml:space="preserve">
<g>
	<g>
		<path d="M445.739,201.967c-1.418-9.318-10.122-15.723-19.44-14.304c-9.318,1.418-15.723,10.122-14.304,19.44
			c0.027,0.177,0.057,0.354,0.089,0.53c17.38,102.311-51.47,199.339-153.781,216.719c-102.311,17.38-199.339-51.47-216.719-153.781
			S93.053,71.232,195.364,53.852c62.919-10.688,126.962,11.29,170.059,58.361l-75.605,25.208
			c-8.954,2.979-13.799,12.652-10.82,21.606c2.979,8.954,12.652,13.799,21.606,10.82l102.4-34.133
			c6.99-2.328,11.697-8.88,11.674-16.247v-102.4C414.677,7.641,407.036,0,397.611,0s-17.067,7.641-17.067,17.067v62.344
			C292.64-4.213,153.588-0.744,69.963,87.161s-80.155,226.956,7.75,310.581s226.956,80.155,310.581-7.75
			C435.984,339.861,457.269,270.191,445.739,201.967z"/>
	</g>
</g>
<g>
	<g>
		<path d="M312.277,238.933h-17.067c0-37.703-30.564-68.267-68.267-68.267s-68.267,30.564-68.267,68.267h-17.067
			c-9.426,0-17.067,7.641-17.067,17.067v102.4c0,9.426,7.641,17.067,17.067,17.067h170.667c9.426,0,17.067-7.641,17.067-17.067V256
			C329.344,246.574,321.703,238.933,312.277,238.933z M226.944,204.8c18.851,0,34.133,15.282,34.133,34.133h-68.267
			C192.811,220.082,208.093,204.8,226.944,204.8z M295.211,341.333H158.677v-68.267h136.533V341.333z"/>
	</g>
</g>
<g>
</g>
<g>
</g>
<g>
</g>
<g>
</g>
<g>
</g>
<g>
</g>
<g>
</g>
<g>
</g>
<g>
</g>
<g>
</g>
<g>
</g>
<g>
</g>
<g>
</g>
<g>
</g>
<g>
</g>
</svg>
