<?xml version="1.0" encoding="iso-8859-1"?>
<!-- Generator: Adobe Illustrator 19.0.0, SVG Export Plug-In . SVG Version: 6.00 Build 0)  -->
<svg version="1.1" id="Capa_1" xmlns="http://www.w3.org/2000/svg" xmlns:xlink="http://www.w3.org/1999/xlink" x="0px" y="0px"
	 viewBox="0 0 477.844 477.844" style="enable-background:new 0 0 477.844 477.844;" xml:space="preserve">
<g>
	<g>
		<path d="M420.781,174.882c-3.092-2.702-7.055-4.199-11.162-4.215h-91.853l73.079-145.971c2.612-5.301,2.296-11.577-0.836-16.589
			c-3.108-5.038-8.604-8.106-14.524-8.107h-307.2c-9.426,0.004-17.064,7.648-17.06,17.073c0,0.866,0.067,1.731,0.198,2.588
			l34.133,221.867c1.28,8.324,8.44,14.469,16.862,14.472h66.901L153.62,459.486c-0.713,9.399,6.327,17.596,15.726,18.309
			c5.353,0.406,10.584-1.729,14.124-5.765l238.933-273.067C428.605,191.866,427.879,181.084,420.781,174.882z M191.644,410.931
			l13.124-170.667c0.735-9.397-6.287-17.611-15.683-18.346c-0.443-0.035-0.888-0.052-1.332-0.052h-70.69L88.186,34.133h259.686
			l-72.994,145.971c-4.213,8.432-0.794,18.682,7.638,22.896c2.371,1.185,4.986,1.801,7.637,1.8h81.92L191.644,410.931z"/>
	</g>
</g>
<g>
</g>
<g>
</g>
<g>
</g>
<g>
</g>
<g>
</g>
<g>
</g>
<g>
</g>
<g>
</g>
<g>
</g>
<g>
</g>
<g>
</g>
<g>
</g>
<g>
</g>
<g>
</g>
<g>
</g>
</svg>
