<?xml version="1.0" encoding="iso-8859-1"?>
<!-- Generator: Adobe Illustrator 19.0.0, SVG Export Plug-In . SVG Version: 6.00 Build 0)  -->
<svg version="1.1" id="Capa_1" xmlns="http://www.w3.org/2000/svg" xmlns:xlink="http://www.w3.org/1999/xlink" x="0px" y="0px"
	 viewBox="0 0 477.867 477.867" style="enable-background:new 0 0 477.867 477.867;" xml:space="preserve">
<g>
	<g>
		<path d="M426.667,0H102.4c-9.426,0-17.067,7.641-17.067,17.067v51.2H51.2c-9.426,0-17.067,7.641-17.067,17.067V460.8
			c0,9.426,7.641,17.067,17.067,17.067h307.2c9.426,0,17.067-7.641,17.067-17.067v-17.067h51.2c9.426,0,17.067-7.641,17.067-17.067
			v-409.6C443.733,7.641,436.092,0,426.667,0z M341.333,443.733H68.267V102.4H256v68.267c0,9.426,7.641,17.067,17.067,17.067h68.267
			V443.733z M290.133,153.6v-27.068l27.068,27.068H290.133z M409.6,409.6h-34.133V170.667c-0.023-4.53-1.825-8.869-5.018-12.083
			L285.116,73.25c-3.211-3.172-7.536-4.96-12.049-4.983h-153.6V34.133H409.6V409.6z"/>
	</g>
</g>
<g>
	<g>
		<path d="M290.133,221.867H119.467c-9.426,0-17.067,7.641-17.067,17.067S110.041,256,119.467,256h170.667
			c9.426,0,17.067-7.641,17.067-17.067S299.559,221.867,290.133,221.867z"/>
	</g>
</g>
<g>
	<g>
		<path d="M290.133,290.133H119.467c-9.426,0-17.067,7.641-17.067,17.067s7.641,17.067,17.067,17.067h170.667
			c9.426,0,17.067-7.641,17.067-17.067S299.559,290.133,290.133,290.133z"/>
	</g>
</g>
<g>
	<g>
		<path d="M290.133,358.4H119.467c-9.426,0-17.067,7.641-17.067,17.067c0,9.426,7.641,17.067,17.067,17.067h170.667
			c9.426,0,17.067-7.641,17.067-17.067C307.2,366.041,299.559,358.4,290.133,358.4z"/>
	</g>
</g>
<g>
</g>
<g>
</g>
<g>
</g>
<g>
</g>
<g>
</g>
<g>
</g>
<g>
</g>
<g>
</g>
<g>
</g>
<g>
</g>
<g>
</g>
<g>
</g>
<g>
</g>
<g>
</g>
<g>
</g>
</svg>
