<?xml version="1.0" encoding="iso-8859-1"?>
<!-- Generator: Adobe Illustrator 19.0.0, SVG Export Plug-In . SVG Version: 6.00 Build 0)  -->
<svg version="1.1" id="Capa_1" xmlns="http://www.w3.org/2000/svg" xmlns:xlink="http://www.w3.org/1999/xlink" x="0px" y="0px"
	 viewBox="0 0 477.867 477.867" style="enable-background:new 0 0 477.867 477.867;" xml:space="preserve">
<g>
	<g>
		<path d="M460.8,68.267H17.067C7.641,68.267,0,75.908,0,85.333v307.2c0,9.426,7.641,17.067,17.067,17.067H460.8
			c9.426,0,17.067-7.641,17.067-17.067v-307.2C477.867,75.908,470.226,68.267,460.8,68.267z M34.133,102.4H82.91
			c-6.245,23.882-24.895,42.532-48.777,48.777V102.4z M34.133,375.467V326.69c23.882,6.245,42.532,24.895,48.777,48.776H34.133z
			 M443.733,375.467h-48.777c6.245-23.882,24.895-42.532,48.777-48.776V375.467z M443.733,291.669
			c-42.88,7.328-76.469,40.917-83.797,83.797H117.931c-7.328-42.88-40.917-76.469-83.797-83.797V186.197
			c42.88-7.329,76.469-40.917,83.797-83.797h242.005c7.328,42.88,40.917,76.469,83.797,83.797V291.669z M443.733,151.177
			c-23.882-6.245-42.532-24.895-48.777-48.777h48.777V151.177z"/>
	</g>
</g>
<g>
	<g>
		<path d="M238.933,153.6c-47.128,0-85.333,38.205-85.333,85.333s38.205,85.333,85.333,85.333s85.333-38.205,85.333-85.333
			C324.21,191.828,286.038,153.656,238.933,153.6z M238.933,290.133c-28.277,0-51.2-22.923-51.2-51.2s22.923-51.2,51.2-51.2
			s51.2,22.923,51.2,51.2S267.21,290.133,238.933,290.133z"/>
	</g>
</g>
<g>
</g>
<g>
</g>
<g>
</g>
<g>
</g>
<g>
</g>
<g>
</g>
<g>
</g>
<g>
</g>
<g>
</g>
<g>
</g>
<g>
</g>
<g>
</g>
<g>
</g>
<g>
</g>
<g>
</g>
</svg>
