<?xml version="1.0" encoding="iso-8859-1"?>
<!-- Generator: Adobe Illustrator 19.0.0, SVG Export Plug-In . SVG Version: 6.00 Build 0)  -->
<svg version="1.1" id="Capa_1" xmlns="http://www.w3.org/2000/svg" xmlns:xlink="http://www.w3.org/1999/xlink" x="0px" y="0px"
	 viewBox="0 0 477.867 477.867" style="enable-background:new 0 0 477.867 477.867;" xml:space="preserve">
<g>
	<g>
		<path d="M238.933,0C106.974,0,0,106.974,0,238.933s106.974,238.933,238.933,238.933s238.933-106.974,238.933-238.933
			C477.726,107.033,370.834,0.141,238.933,0z M238.933,443.733c-113.108,0-204.8-91.692-204.8-204.8s91.692-204.8,204.8-204.8
			s204.8,91.692,204.8,204.8C443.611,351.991,351.991,443.611,238.933,443.733z"/>
	</g>
</g>
<g>
	<g>
		<path d="M256,221.867h-34.133c-18.851,0-34.133-15.282-34.133-34.133v-17.067c0-18.851,15.282-34.133,34.133-34.133H256
			c18.851,0,34.133,15.282,34.133,34.133c0,9.426,7.641,17.067,17.067,17.067s17.067-7.641,17.067-17.067
			c0-37.703-30.564-68.267-68.267-68.267V85.333c0-9.426-7.641-17.067-17.067-17.067s-17.067,7.641-17.067,17.067V102.4
			c-37.703,0-68.267,30.564-68.267,68.267v17.067c0,37.703,30.564,68.267,68.267,68.267H256c18.851,0,34.133,15.282,34.133,34.133
			V307.2c0,18.851-15.282,34.133-34.133,34.133h-34.133c-18.851,0-34.133-15.282-34.133-34.133c0-9.426-7.641-17.067-17.067-17.067
			S153.6,297.774,153.6,307.2c0,37.703,30.564,68.267,68.267,68.267v17.067c0,9.426,7.641,17.067,17.067,17.067
			S256,401.959,256,392.533v-17.067c37.703,0,68.267-30.564,68.267-68.267v-17.067C324.267,252.431,293.703,221.867,256,221.867z"/>
	</g>
</g>
<g>
</g>
<g>
</g>
<g>
</g>
<g>
</g>
<g>
</g>
<g>
</g>
<g>
</g>
<g>
</g>
<g>
</g>
<g>
</g>
<g>
</g>
<g>
</g>
<g>
</g>
<g>
</g>
<g>
</g>
</svg>
