<?xml version="1.0" encoding="iso-8859-1"?>
<!-- Generator: Adobe Illustrator 19.0.0, SVG Export Plug-In . SVG Version: 6.00 Build 0)  -->
<svg version="1.1" id="Capa_1" xmlns="http://www.w3.org/2000/svg" xmlns:xlink="http://www.w3.org/1999/xlink" x="0px" y="0px"
	 viewBox="0 0 477.867 477.867" style="enable-background:new 0 0 477.867 477.867;" xml:space="preserve">
<g>
	<g>
		<path d="M238.933,221.867c-47.128,0-85.333,38.205-85.333,85.333s38.205,85.333,85.333,85.333s85.333-38.205,85.333-85.333
			C324.21,260.095,286.038,221.923,238.933,221.867z M238.933,358.4c-28.277,0-51.2-22.923-51.2-51.2
			c0-28.277,22.923-51.2,51.2-51.2s51.2,22.923,51.2,51.2C290.133,335.477,267.21,358.4,238.933,358.4z"/>
	</g>
</g>
<g>
	<g>
		<path d="M460.8,0H17.067C7.641,0,0,7.641,0,17.067V460.8c0,9.426,7.641,17.067,17.067,17.067H460.8
			c9.426,0,17.067-7.641,17.067-17.067V17.067C477.867,7.641,470.226,0,460.8,0z M34.133,170.667H82.91
			c-6.245,23.882-24.895,42.532-48.777,48.777V170.667z M34.133,443.733v-48.777c23.882,6.245,42.532,24.895,48.777,48.777H34.133z
			 M443.733,443.733h-48.777c6.245-23.882,24.895-42.532,48.777-48.777V443.733z M443.733,359.936
			c-42.88,7.328-76.469,40.917-83.797,83.797H117.931c-7.328-42.88-40.917-76.469-83.797-83.797V254.464
			c42.88-7.329,76.469-40.917,83.797-83.797h242.005c7.328,42.88,40.917,76.469,83.797,83.797V359.936z M443.733,219.443
			c-23.882-6.245-42.532-24.895-48.777-48.777h48.777V219.443z M443.733,136.533h-409.6V102.4h409.6V136.533z M443.733,68.267
			h-409.6V34.133h409.6V68.267z"/>
	</g>
</g>
<g>
</g>
<g>
</g>
<g>
</g>
<g>
</g>
<g>
</g>
<g>
</g>
<g>
</g>
<g>
</g>
<g>
</g>
<g>
</g>
<g>
</g>
<g>
</g>
<g>
</g>
<g>
</g>
<g>
</g>
</svg>
