<?xml version="1.0" encoding="iso-8859-1"?>
<!-- Generator: Adobe Illustrator 19.0.0, SVG Export Plug-In . SVG Version: 6.00 Build 0)  -->
<svg version="1.1" id="Capa_1" xmlns="http://www.w3.org/2000/svg" xmlns:xlink="http://www.w3.org/1999/xlink" x="0px" y="0px"
	 viewBox="0 0 477.867 477.867" style="enable-background:new 0 0 477.867 477.867;" xml:space="preserve">
<g>
	<g>
		<path d="M426.667,187.733h-20.139l-23.159-115.78c-6.445-31.871-34.42-54.81-66.935-54.886H161.434
			c-32.516,0.076-60.491,23.016-66.935,54.886l-23.159,115.78H51.2c-28.277,0-51.2,22.923-51.2,51.2v102.4
			c0.09,21.62,13.75,40.853,34.133,48.06V409.6c0,28.277,22.923,51.2,51.2,51.2s51.2-22.923,51.2-51.2v-17.067h204.8V409.6
			c0,28.277,22.923,51.2,51.2,51.2s51.2-22.923,51.2-51.2v-20.207c20.384-7.206,34.044-26.44,34.133-48.06v-102.4
			C477.867,210.656,454.944,187.733,426.667,187.733z M128,78.643c3.229-15.917,17.192-27.379,33.434-27.443h154.999
			c16.241,0.064,30.205,11.526,33.434,27.443l21.845,109.09H106.155L128,78.643z M102.4,409.6c0,9.426-7.641,17.067-17.067,17.067
			s-17.067-7.641-17.067-17.067v-17.067H102.4V409.6z M409.6,409.6c0,9.426-7.641,17.067-17.067,17.067s-17.067-7.641-17.067-17.067
			v-17.067H409.6V409.6z M443.733,341.333c0,9.426-7.641,17.067-17.067,17.067H51.2c-9.426,0-17.067-7.641-17.067-17.067v-102.4
			c0-9.426,7.641-17.067,17.067-17.067h375.467c9.426,0,17.067,7.641,17.067,17.067V341.333z"/>
	</g>
</g>
<g>
	<g>
		<circle cx="102.4" cy="290.133" r="34.133"/>
	</g>
</g>
<g>
	<g>
		<circle cx="375.467" cy="290.133" r="34.133"/>
	</g>
</g>
<g>
	<g>
		<path d="M217.286,90.334c-6.548-6.78-17.352-6.968-24.132-0.42c-0.142,0.137-0.282,0.277-0.42,0.42l-51.2,51.2
			c-6.78,6.548-6.967,17.353-0.419,24.132c6.548,6.78,17.353,6.967,24.132,0.419c0.142-0.137,0.282-0.277,0.419-0.419l51.2-51.2
			C223.646,107.918,223.834,97.114,217.286,90.334z"/>
	</g>
</g>
<g>
	<g>
		<path d="M319.686,90.334c-6.548-6.78-17.352-6.968-24.132-0.42c-0.142,0.137-0.282,0.277-0.42,0.42l-51.2,51.2
			c-6.78,6.548-6.968,17.352-0.419,24.132c6.548,6.78,17.353,6.968,24.132,0.419c0.142-0.137,0.282-0.277,0.419-0.419l51.2-51.2
			C326.046,107.918,326.234,97.114,319.686,90.334z"/>
	</g>
</g>
<g>
	<g>
		<path d="M290.133,273.067h-102.4c-9.426,0-17.067,7.641-17.067,17.067s7.641,17.067,17.067,17.067h102.4
			c9.426,0,17.067-7.641,17.067-17.067S299.559,273.067,290.133,273.067z"/>
	</g>
</g>
<g>
</g>
<g>
</g>
<g>
</g>
<g>
</g>
<g>
</g>
<g>
</g>
<g>
</g>
<g>
</g>
<g>
</g>
<g>
</g>
<g>
</g>
<g>
</g>
<g>
</g>
<g>
</g>
<g>
</g>
</svg>
