<?xml version="1.0" encoding="iso-8859-1"?>
<!-- Generator: Adobe Illustrator 19.0.0, SVG Export Plug-In . SVG Version: 6.00 Build 0)  -->
<svg version="1.1" id="Capa_1" xmlns="http://www.w3.org/2000/svg" xmlns:xlink="http://www.w3.org/1999/xlink" x="0px" y="0px"
	 viewBox="0 0 478.77 478.77" style="enable-background:new 0 0 478.77 478.77;" xml:space="preserve">
<g>
	<g>
		<path d="M473.28,345.596l-85.333-85.333c-6.664-6.663-17.468-6.663-24.132,0l-56.201,56.166L162.769,170.783l56.32-56.32
			c6.663-6.665,6.663-17.468,0-24.132L133.756,4.997c-6.664-6.663-17.468-6.663-24.132,0L40.401,74.236
			c-53.216,53.351-53.216,139.707,0,193.058l170.667,171.554c53.359,53.229,139.733,53.229,193.092,0l69.12-69.12
			C479.943,363.064,479.943,352.261,473.28,345.596z M380.028,414.716c-40.018,39.9-104.775,39.9-144.794,0L64.568,243.179
			c-39.921-40.011-39.936-104.781-0.034-144.811l57.054-57.054l61.218,61.201l-56.201,56.201c-6.64,6.661-6.64,17.438,0,24.098
			l168.96,169.813c3.196,3.2,7.526,5.009,12.049,5.035c4.526-0.001,8.866-1.8,12.066-5l56.201-56.201l61.201,61.201L380.028,414.716
			z"/>
	</g>
</g>
<g>
	<g>
		<path d="M467.734,1.43c-2.067-0.857-4.282-1.303-6.519-1.314h-85.333c-9.426,0-17.067,7.641-17.067,17.067
			s7.641,17.067,17.067,17.067h44.134L261.415,192.85c-6.664,6.666-6.662,17.472,0.004,24.136c3.2,3.199,7.538,4.996,12.063,4.997
			c4.526-0.001,8.866-1.8,12.066-5.001L444.147,58.381v44.134c0,9.426,7.641,17.067,17.067,17.067s17.067-7.641,17.067-17.067
			V17.183C478.273,10.282,474.11,4.066,467.734,1.43z"/>
	</g>
</g>
<g>
</g>
<g>
</g>
<g>
</g>
<g>
</g>
<g>
</g>
<g>
</g>
<g>
</g>
<g>
</g>
<g>
</g>
<g>
</g>
<g>
</g>
<g>
</g>
<g>
</g>
<g>
</g>
<g>
</g>
</svg>
