<?xml version="1.0" encoding="iso-8859-1"?>
<!-- Generator: Adobe Illustrator 19.0.0, SVG Export Plug-In . SVG Version: 6.00 Build 0)  -->
<svg version="1.1" id="Capa_1" xmlns="http://www.w3.org/2000/svg" xmlns:xlink="http://www.w3.org/1999/xlink" x="0px" y="0px"
	 viewBox="0 0 477.867 477.867" style="enable-background:new 0 0 477.867 477.867;" xml:space="preserve">
<g>
	<g>
		<path d="M375.467,0H102.4C74.123,0,51.2,22.923,51.2,51.2v375.467c0,28.277,22.923,51.2,51.2,51.2h273.067
			c28.277,0,51.2-22.923,51.2-51.2V51.2C426.667,22.923,403.744,0,375.467,0z M392.533,426.667c0,9.426-7.641,17.067-17.067,17.067
			H102.4c-9.426,0-17.067-7.641-17.067-17.067V51.2c0-9.426,7.641-17.067,17.067-17.067h273.067c9.426,0,17.067,7.641,17.067,17.067
			V426.667z"/>
	</g>
</g>
<g>
	<g>
		<path d="M341.333,85.333h-204.8c-9.426,0-17.067,7.641-17.067,17.067v68.267c0,9.426,7.641,17.067,17.067,17.067h204.8
			c9.426,0,17.067-7.641,17.067-17.067V102.4C358.4,92.974,350.759,85.333,341.333,85.333z M324.267,153.6H153.6v-34.133h170.667
			V153.6z"/>
	</g>
</g>
<g>
	<g>
		<path d="M170.667,221.867h-34.133c-9.426,0-17.067,7.641-17.067,17.067S127.108,256,136.533,256h34.133
			c9.426,0,17.067-7.641,17.067-17.067S180.092,221.867,170.667,221.867z"/>
	</g>
</g>
<g>
	<g>
		<path d="M256,221.867h-34.133c-9.426,0-17.067,7.641-17.067,17.067S212.441,256,221.867,256H256
			c9.426,0,17.067-7.641,17.067-17.067S265.426,221.867,256,221.867z"/>
	</g>
</g>
<g>
	<g>
		<path d="M341.333,221.867H307.2c-9.426,0-17.067,7.641-17.067,17.067S297.774,256,307.2,256h34.133
			c9.426,0,17.067-7.641,17.067-17.067S350.759,221.867,341.333,221.867z"/>
	</g>
</g>
<g>
	<g>
		<path d="M170.667,290.133h-34.133c-9.426,0-17.067,7.641-17.067,17.067s7.641,17.067,17.067,17.067h34.133
			c9.426,0,17.067-7.641,17.067-17.067S180.092,290.133,170.667,290.133z"/>
	</g>
</g>
<g>
	<g>
		<path d="M256,290.133h-34.133c-9.426,0-17.067,7.641-17.067,17.067s7.641,17.067,17.067,17.067H256
			c9.426,0,17.067-7.641,17.067-17.067S265.426,290.133,256,290.133z"/>
	</g>
</g>
<g>
	<g>
		<path d="M341.333,290.133H307.2c-9.426,0-17.067,7.641-17.067,17.067s7.641,17.067,17.067,17.067h34.133
			c9.426,0,17.067-7.641,17.067-17.067S350.759,290.133,341.333,290.133z"/>
	</g>
</g>
<g>
	<g>
		<path d="M170.667,358.4h-34.133c-9.426,0-17.067,7.641-17.067,17.067c0,9.426,7.641,17.067,17.067,17.067h34.133
			c9.426,0,17.067-7.641,17.067-17.067C187.733,366.041,180.092,358.4,170.667,358.4z"/>
	</g>
</g>
<g>
	<g>
		<path d="M256,358.4h-34.133c-9.426,0-17.067,7.641-17.067,17.067c0,9.426,7.641,17.067,17.067,17.067H256
			c9.426,0,17.067-7.641,17.067-17.067C273.067,366.041,265.426,358.4,256,358.4z"/>
	</g>
</g>
<g>
	<g>
		<path d="M341.333,358.4H307.2c-9.426,0-17.067,7.641-17.067,17.067c0,9.426,7.641,17.067,17.067,17.067h34.133
			c9.426,0,17.067-7.641,17.067-17.067C358.4,366.041,350.759,358.4,341.333,358.4z"/>
	</g>
</g>
<g>
</g>
<g>
</g>
<g>
</g>
<g>
</g>
<g>
</g>
<g>
</g>
<g>
</g>
<g>
</g>
<g>
</g>
<g>
</g>
<g>
</g>
<g>
</g>
<g>
</g>
<g>
</g>
<g>
</g>
</svg>
