<?xml version="1.0" encoding="iso-8859-1"?>
<!-- Generator: Adobe Illustrator 19.0.0, SVG Export Plug-In . SVG Version: 6.00 Build 0)  -->
<svg version="1.1" id="Capa_1" xmlns="http://www.w3.org/2000/svg" xmlns:xlink="http://www.w3.org/1999/xlink" x="0px" y="0px"
	 viewBox="0 0 477.867 477.867" style="enable-background:new 0 0 477.867 477.867;" xml:space="preserve">
<g>
	<g>
		<path d="M426.667,102.4h-102.4V68.267c0-28.277-22.923-51.2-51.2-51.2H204.8c-28.277,0-51.2,22.923-51.2,51.2V102.4H51.2
			C22.923,102.4,0,125.323,0,153.6v256c0,28.277,22.923,51.2,51.2,51.2h375.467c28.277,0,51.2-22.923,51.2-51.2v-256
			C477.867,125.323,454.944,102.4,426.667,102.4z M187.733,68.267c0-9.426,7.641-17.067,17.067-17.067h68.267
			c9.426,0,17.067,7.641,17.067,17.067V102.4h-102.4V68.267z M51.2,426.667c-9.426,0-17.067-7.641-17.067-17.067v-31.71
			c23.898,6.215,42.561,24.878,48.777,48.776H51.2z M443.733,409.6c0,9.426-7.641,17.067-17.067,17.067h-31.71
			c6.215-23.898,24.878-42.561,48.777-48.776V409.6z M443.733,342.869c-42.88,7.328-76.469,40.917-83.797,83.797H117.931
			c-7.328-42.88-40.917-76.469-83.797-83.797v-96.87l22.067,22.067c3.2,3.201,7.54,5,12.066,5.001h153.6v17.067
			c0,9.426,7.641,17.067,17.067,17.067S256,299.559,256,290.133v-17.067h153.6c4.526-0.001,8.866-1.8,12.066-5.001l22.067-22.067
			V342.869z M443.733,197.734l-41.199,41.199H256v-17.067c0-9.426-7.641-17.067-17.067-17.067s-17.067,7.641-17.067,17.067v17.067
			H75.332l-41.199-41.199V153.6c0-9.426,7.641-17.067,17.067-17.067h375.467c9.426,0,17.067,7.641,17.067,17.067V197.734z"/>
	</g>
</g>
<g>
</g>
<g>
</g>
<g>
</g>
<g>
</g>
<g>
</g>
<g>
</g>
<g>
</g>
<g>
</g>
<g>
</g>
<g>
</g>
<g>
</g>
<g>
</g>
<g>
</g>
<g>
</g>
<g>
</g>
</svg>
