<?xml version="1.0" encoding="iso-8859-1"?>
<!-- Generator: Adobe Illustrator 19.0.0, SVG Export Plug-In . SVG Version: 6.00 Build 0)  -->
<svg version="1.1" id="Capa_1" xmlns="http://www.w3.org/2000/svg" xmlns:xlink="http://www.w3.org/1999/xlink" x="0px" y="0px"
	 viewBox="0 0 477.874 477.874" style="enable-background:new 0 0 477.874 477.874;" xml:space="preserve">
<g>
	<g>
		<path d="M409.607,170.67h-73.779L271.862,10.738c-2.591-6.485-8.871-10.737-15.855-10.735H187.74
			c-9.426,0-17.067,7.641-17.067,17.066c0,0.57,0.029,1.14,0.086,1.707l15.275,151.893h-71.322l-13.193-39.526
			c-2.32-6.967-8.836-11.668-16.179-11.674H17.074c-9.426-0.002-17.068,7.638-17.07,17.063c0,1.148,0.115,2.292,0.345,3.417
			l16.725,83.627v30.72L0.348,337.923c-1.885,9.235,4.073,18.25,13.309,20.135c1.124,0.229,2.269,0.345,3.417,0.345H85.34
			c7.343-0.006,13.859-4.707,16.179-11.674l13.193-39.526h71.322l-15.189,151.893c-0.503,4.789,1.04,9.568,4.25,13.158
			c3.234,3.573,7.827,5.613,12.646,5.615h68.267c6.984,0.003,13.264-4.25,15.855-10.735l63.966-159.932h73.779
			c37.703,0,68.267-30.564,68.267-68.267S447.31,170.67,409.607,170.67z M409.607,273.07h-85.333
			c-6.984-0.003-13.264,4.25-15.855,10.735l-63.966,159.932h-37.854l15.275-151.893c0.943-9.378-5.896-17.745-15.274-18.688
			c-0.596-0.06-1.194-0.088-1.792-0.085h-102.4c-7.343,0.006-13.859,4.707-16.179,11.674L73.035,324.27h-35.14l12.971-64.853
			c0.228-1.123,0.342-2.267,0.341-3.413V221.87c0.001-1.146-0.113-2.29-0.341-3.413l-12.971-64.853h35.14l13.193,39.526
			c2.32,6.967,8.836,11.668,16.179,11.674h102.4c9.426,0.047,17.105-7.555,17.152-16.981c0.003-0.599-0.025-1.197-0.085-1.792
			L206.599,34.137h37.854l63.966,159.932c2.591,6.485,8.871,10.737,15.855,10.735h85.333c18.851,0,34.133,15.282,34.133,34.133
			C443.74,257.788,428.458,273.07,409.607,273.07z"/>
	</g>
</g>
<g>
</g>
<g>
</g>
<g>
</g>
<g>
</g>
<g>
</g>
<g>
</g>
<g>
</g>
<g>
</g>
<g>
</g>
<g>
</g>
<g>
</g>
<g>
</g>
<g>
</g>
<g>
</g>
<g>
</g>
</svg>
