<?xml version="1.0" encoding="iso-8859-1"?>
<!-- Generator: Adobe Illustrator 19.0.0, SVG Export Plug-In . SVG Version: 6.00 Build 0)  -->
<svg version="1.1" id="Capa_1" xmlns="http://www.w3.org/2000/svg" xmlns:xlink="http://www.w3.org/1999/xlink" x="0px" y="0px"
	 viewBox="0 0 477.867 477.867" style="enable-background:new 0 0 477.867 477.867;" xml:space="preserve">
<g>
	<g>
		<path d="M460.8,324.267H151.603L119.33,66.15c-1.067-8.539-8.325-14.948-16.93-14.95H17.067C7.641,51.2,0,58.841,0,68.267
			s7.641,17.067,17.067,17.067H87.33l32.273,258.116c1.067,8.539,8.325,14.948,16.93,14.95H460.8
			c9.426,0,17.067-7.641,17.067-17.067S470.226,324.267,460.8,324.267z"/>
	</g>
</g>
<g>
	<g>
		<path d="M187.733,375.467c-28.277,0-51.2,22.923-51.2,51.2s22.923,51.2,51.2,51.2c28.277,0,51.2-22.923,51.2-51.2
			S216.01,375.467,187.733,375.467z M187.733,443.733c-9.426,0-17.067-7.641-17.067-17.067s7.641-17.067,17.067-17.067
			c9.426,0,17.067,7.641,17.067,17.067S197.159,443.733,187.733,443.733z"/>
	</g>
</g>
<g>
	<g>
		<path d="M392.533,375.467c-28.277,0-51.2,22.923-51.2,51.2s22.923,51.2,51.2,51.2s51.2-22.923,51.2-51.2
			S420.81,375.467,392.533,375.467z M392.533,443.733c-9.426,0-17.067-7.641-17.067-17.067s7.641-17.067,17.067-17.067
			s17.067,7.641,17.067,17.067S401.959,443.733,392.533,443.733z"/>
	</g>
</g>
<g>
	<g>
		<path d="M460.8,51.2h-68.267c-9.426,0-17.067,7.641-17.067,17.067s7.641,17.067,17.067,17.067h51.2V256H219.255L190.822,85.333
			H256c9.426,0,17.067-7.641,17.067-17.067S265.426,51.2,256,51.2h-85.333c-9.426,0.004-17.063,7.649-17.059,17.075
			c0,0.935,0.078,1.869,0.231,2.791l34.133,204.8c1.368,8.23,8.485,14.264,16.828,14.268h256c9.426,0,17.067-7.641,17.067-17.067
			v-204.8C477.867,58.841,470.226,51.2,460.8,51.2z"/>
	</g>
</g>
<g>
	<g>
		<path d="M387.147,141.534c-6.614-6.388-17.099-6.388-23.712,0l-22.101,22.067V17.067C341.333,7.641,333.692,0,324.267,0
			C314.841,0,307.2,7.641,307.2,17.067v146.534l-22.067-22.067c-6.78-6.548-17.584-6.36-24.132,0.419
			c-6.388,6.614-6.388,17.099,0,23.713l51.2,51.2c6.657,6.673,17.463,6.687,24.136,0.031c0.01-0.01,0.02-0.02,0.031-0.031l51.2-51.2
			C394.115,158.886,393.927,148.082,387.147,141.534z"/>
	</g>
</g>
<g>
</g>
<g>
</g>
<g>
</g>
<g>
</g>
<g>
</g>
<g>
</g>
<g>
</g>
<g>
</g>
<g>
</g>
<g>
</g>
<g>
</g>
<g>
</g>
<g>
</g>
<g>
</g>
<g>
</g>
</svg>
