<svg id="Capa_1" enable-background="new 0 0 512 512" height="512" viewBox="0 0 512 512" width="512" xmlns="http://www.w3.org/2000/svg"><g><path d="m256 0c-108.896 0-216 67.987-216 170.764 0 78.768 64.918 138.415 141.794 160.472l55.216 167.077c6.028 18.239 31.945 18.258 37.979 0l55.216-167.077c77.02-22.099 141.795-81.85 141.795-160.472 0-103.098-107.559-170.764-216-170.764zm53.937 295.219c-6.726 1.619-12.138 6.6-14.309 13.169l-39.628 119.912-39.628-119.911c-2.171-6.569-7.583-11.55-14.309-13.169-62.674-15.091-122.063-60.877-122.063-124.456 0-79.097 89.496-130.761 176-130.761 84.687 0 176 50.462 176 130.761 0 63.477-59.238 109.329-122.063 124.455zm-53.937-184.459c-33.084 0-60 26.918-60 60.004s26.916 60.004 60 60.004 60-26.918 60-60.004-26.916-60.004-60-60.004zm0 80.006c-11.028 0-20-8.973-20-20.001s8.972-20.001 20-20.001 20 8.973 20 20.001-8.972 20.001-20 20.001z"/></g></svg>