<svg id="Capa_1" enable-background="new 0 0 512 512" height="512" viewBox="0 0 512 512" width="512" xmlns="http://www.w3.org/2000/svg"><g><path d="m511.852 252.636-14.977-122.965c-.651-5.347-3.423-10.207-7.689-13.483l-95.786-73.553c-6.534-5.019-15.467-5.512-22.511-1.242l-114.889 69.619-114.889-69.62c-7.044-4.269-15.978-3.775-22.511 1.242l-95.787 73.554c-4.267 3.276-7.038 8.136-7.689 13.483l-14.977 122.965c-.82 6.735 1.814 13.428 7.001 17.789l236 198.388c7.433 6.249 18.27 6.249 25.704 0l236-198.388c5.186-4.36 7.821-11.053 7-17.789zm-255.852 174.655-214.832-180.594 12.644-103.806 78.282-60.113 113.559 68.813c6.362 3.855 14.333 3.855 20.695 0l113.559-68.813 78.283 60.113 12.643 103.806z"/></g></svg>