<svg id="Capa_1" enable-background="new 0 0 512 512" height="512" viewBox="0 0 512 512" width="512" xmlns="http://www.w3.org/2000/svg"><g><path d="m506.144 241.858-236.002-236c-7.811-7.811-20.474-7.811-28.284 0l-236.002 236c-9.989 9.991-6.738 26.953 6.264 32.525l58.509 25.075 9.394 193.512c.515 10.656 9.306 19.03 19.975 19.03h312.003c10.669 0 19.46-8.374 19.977-19.03l9.394-193.512 58.509-25.075c12.985-5.565 16.265-22.522 6.263-32.525zm-207.644 230.142h-85.001v-115.999h85.001zm115.623-204.383c-7.031 3.013-11.727 9.772-12.098 17.413l-9.077 186.97h-54.448v-135.999c0-11.046-8.954-20-20-20h-125.001c-11.046 0-20 8.954-20 20v135.999h-54.447l-9.076-186.97c-.371-7.641-5.067-14.4-12.098-17.413l-42.848-18.363 200.97-200.969 200.971 200.97z"/></g></svg>