<svg id="Capa_1" enable-background="new 0 0 512 512" height="512" viewBox="0 0 512 512" width="512" xmlns="http://www.w3.org/2000/svg"><g><path d="m511.023 200.746-7.857-24.213c-2.35-7.242-8.609-12.521-16.144-13.618l-116.12-16.893 27.911-38.462c6.488-8.939 4.499-21.445-4.441-27.934-8.939-6.487-21.446-4.499-27.933 4.441l-27.871 38.408-51.915-105.318c-3.367-6.831-10.322-11.157-17.939-11.157h-25.428c-7.616 0-14.571 4.326-17.938 11.157l-51.915 105.318-27.871-38.408c-6.487-8.941-18.994-10.928-27.933-4.441-8.94 6.488-10.928 18.994-4.441 27.934l27.911 38.462-116.12 16.893c-7.535 1.097-13.794 6.376-16.144 13.618l-7.858 24.213c-2.348 7.234-.389 15.175 5.055 20.487l84.045 82.022-45.147 14.688c-10.504 3.417-16.249 14.702-12.832 25.206 3.412 10.487 14.687 16.255 25.206 12.831l45.107-14.674-19.837 115.796c-1.285 7.498 1.796 15.075 7.948 19.55l20.571 14.965c6.163 4.484 14.337 5.073 21.081 1.525l103.826-54.652v47.51c0 11.046 8.955 20 20 20 11.046 0 20-8.954 20-20v-47.51l103.826 54.651c6.685 3.517 14.862 2.998 21.081-1.524l20.572-14.965c6.151-4.476 9.232-12.053 7.947-19.551l-19.836-115.795 45.107 14.674c10.564 3.437 21.809-2.387 25.206-12.831 3.417-10.504-2.328-21.789-12.832-25.206l-45.147-14.688 84.044-82.022c5.443-5.312 7.402-13.252 5.055-20.487zm-140.49 96.773c-4.618 4.387-7.166 11.114-5.912 18.182l23.283 135.912-.46.335-121.881-64.154c-6.1-3.268-13.139-3.206-19.124 0l-121.88 64.154-.461-.335 23.283-135.912c1.305-6.744-1.249-13.871-5.919-18.188l-98.603-96.231.186-.573 136.551-19.865c6.452-.922 12.261-5.09 15.181-11.196l60.949-123.648h.55l60.949 123.647c2.887 6.035 8.601 10.256 15.182 11.196l136.551 19.865.186.572z"/></g></svg>