<svg id="Capa_1" enable-background="new 0 0 512 512" height="512" viewBox="0 0 512 512" width="512" xmlns="http://www.w3.org/2000/svg"><g><path d="m494.414 409.596-92.552-92.559c-18.827-18.829-46.465-22.189-68.301-11.737l-31.815-31.818c22.69-28.774 36.245-65.07 36.245-104.474 0-93.19-75.81-169.008-168.995-169.008s-168.996 75.818-168.996 169.009 75.811 169.009 168.996 169.009c39.402 0 75.695-13.557 104.466-36.25l31.815 31.817c-10.458 21.851-7.082 49.49 11.735 68.308l92.552 92.56c23.394 23.394 61.458 23.396 84.85-.001 23.446-23.447 23.45-61.404 0-84.856zm-325.418-111.58c-71.129 0-128.997-57.872-128.997-129.007s57.868-129.007 128.997-129.007 128.997 57.872 128.997 129.007-57.868 129.007-128.997 129.007zm297.134 168.152c-7.797 7.797-20.485 7.798-28.284-.001h.001l-92.552-92.559c-7.815-7.817-7.817-20.468 0-28.287 7.814-7.815 20.466-7.818 28.283.001l92.552 92.56c7.815 7.816 7.817 20.467 0 28.286z"/></g></svg>