<svg id="Capa_1" enable-background="new 0 0 512 512" height="512" viewBox="0 0 512 512" width="512" xmlns="http://www.w3.org/2000/svg"><g><path d="m478.946 81.245-216-80c-4.481-1.66-9.41-1.66-13.893 0l-216 80c-7.845 2.906-13.053 10.389-13.053 18.755 0 245.454 138.029 377.054 229.053 410.755 4.481 1.66 9.41 1.661 13.893 0 59.477-22.012 229.054-132.401 229.054-410.755 0-8.366-5.208-15.849-13.054-18.755zm-314.946 319.593c-72.381-78.25-101.552-181.264-103.85-286.973l103.85-38.463zm144 36.756c-20.761 16.208-39.581 26.984-51.921 32.677-9.798-4.566-29.165-14.718-52.079-32.591v-377.093l52-19.259 52 19.259zm40-36.752v-325.44l103.851 38.463c-2.292 105.394-31.369 208.731-103.851 286.977z"/></g></svg>