<?xml version="1.0" encoding="iso-8859-1"?>
<!-- Generator: Adobe Illustrator 19.0.0, SVG Export Plug-In . SVG Version: 6.00 Build 0)  -->
<svg version="1.1" id="Capa_1" xmlns="http://www.w3.org/2000/svg" xmlns:xlink="http://www.w3.org/1999/xlink" x="0px" y="0px"
	 viewBox="0 0 512 512" style="enable-background:new 0 0 512 512;" xml:space="preserve">
<g>
	<g>
		<path d="M492,236H172c-11.046,0-20,8.954-20,20c0,11.046,8.954,20,20,20h320c11.046,0,20-8.954,20-20S503.046,236,492,236z"/>
	</g>
</g>
<g>
	<g>
		<path d="M492,86H172c-11.046,0-20,8.954-20,20s8.954,20,20,20h320c11.046,0,20-8.954,20-20S503.046,86,492,86z"/>
	</g>
</g>
<g>
	<g>
		<path d="M492,386H172c-11.046,0-20,8.954-20,20c0,11.046,8.954,20,20,20h320c11.046,0,20-8.954,20-20
			C512,394.954,503.046,386,492,386z"/>
	</g>
</g>
<g>
	<g>
		<path d="M80,206H20c-11.046,0-20,8.954-20,20v60c0,11.046,8.954,20,20,20h60c11.046,0,20-8.954,20-20v-60
			C100,214.954,91.046,206,80,206z M60,266H40v-20h20V266z"/>
	</g>
</g>
<g>
	<g>
		<path d="M80,56H20C8.954,56,0,64.954,0,76v60c0,11.046,8.954,20,20,20h60c11.046,0,20-8.954,20-20V76C100,64.954,91.046,56,80,56z
			 M60,116H40V96h20V116z"/>
	</g>
</g>
<g>
	<g>
		<path d="M80,356H20c-11.046,0-20,8.954-20,20v60c0,11.046,8.954,20,20,20h60c11.046,0,20-8.954,20-20v-60
			C100,364.954,91.046,356,80,356z M60,416H40v-20h20V416z"/>
	</g>
</g>
<g>
</g>
<g>
</g>
<g>
</g>
<g>
</g>
<g>
</g>
<g>
</g>
<g>
</g>
<g>
</g>
<g>
</g>
<g>
</g>
<g>
</g>
<g>
</g>
<g>
</g>
<g>
</g>
<g>
</g>
</svg>
