<?xml version="1.0" encoding="iso-8859-1"?>
<!-- Generator: Adobe Illustrator 19.0.0, SVG Export Plug-In . SVG Version: 6.00 Build 0)  -->
<svg version="1.1" id="Capa_1" xmlns="http://www.w3.org/2000/svg" xmlns:xlink="http://www.w3.org/1999/xlink" x="0px" y="0px"
	 viewBox="0 0 512 512" style="enable-background:new 0 0 512 512;" xml:space="preserve">
<g>
	<g>
		<path d="M456,58.755H326V20c0-11.046-8.954-20-20-20H206c-11.046,0-20,8.954-20,20v38.755H56c-11.046,0-20,8.954-20,20v78.34
			c0,11.046,8.954,20,20,20h30V462c0,27.57,22.43,50,50,50h240c27.57,0,50-22.43,50-50V177.095h30c11.046,0,20-8.954,20-20v-78.34
			C476,67.709,467.046,58.755,456,58.755z M226,40h60v18.755h-60V40z M386,462c0,5.514-4.486,10-10,10H136c-5.514,0-10-4.486-10-10
			V177.095h260V462z M436,137.095c-10.717,0-341.452,0-360,0v-38.34h360V137.095z"/>
	</g>
</g>
<g>
	<g>
		<path d="M206,206.623c-11.046,0-20,8.954-20,20v195.851c0,11.045,8.954,19.999,20,19.999s20-8.954,20-20v-195.85
			C226,215.577,217.046,206.623,206,206.623z"/>
	</g>
</g>
<g>
	<g>
		<path d="M306,206.623c-11.046,0-20,8.954-20,20v195.851c0,11.045,8.954,19.999,20,19.999c11.046,0,20-8.954,20-20v-195.85
			C326,215.577,317.046,206.623,306,206.623z"/>
	</g>
</g>
<g>
</g>
<g>
</g>
<g>
</g>
<g>
</g>
<g>
</g>
<g>
</g>
<g>
</g>
<g>
</g>
<g>
</g>
<g>
</g>
<g>
</g>
<g>
</g>
<g>
</g>
<g>
</g>
<g>
</g>
</svg>
