<?xml version="1.0" encoding="iso-8859-1"?>
<!-- Generator: Adobe Illustrator 19.0.0, SVG Export Plug-In . SVG Version: 6.00 Build 0)  -->
<svg version="1.1" id="Capa_1" xmlns="http://www.w3.org/2000/svg" xmlns:xlink="http://www.w3.org/1999/xlink" x="0px" y="0px"
	 viewBox="0 0 512 512" style="enable-background:new 0 0 512 512;" xml:space="preserve">
<g>
	<g>
		<path d="M492,324.133c-11.046,0-20,8.954-20,20v118.49c0,5.17-4.207,9.377-9.378,9.377H49.378c-5.171,0-9.378-4.206-9.378-9.377
			v-118.49c0-11.046-8.954-20-20-20s-20,8.954-20,20v118.49C0,489.85,22.151,512,49.378,512h413.244
			C489.849,512,512,489.85,512,462.623v-118.49C512,333.087,503.046,324.133,492,324.133z"/>
	</g>
</g>
<g>
	<g>
		<path d="M421.252,248.078C418.09,240.748,410.871,236,402.888,236h-68.133V20c0-11.046-8.954-20-20-20h-117.51
			c-11.046,0-20,8.954-20,20v216h-68.133c-7.983,0-15.201,4.749-18.364,12.079c-3.163,7.33-1.663,15.839,3.816,21.646
			l146.888,155.701c3.778,4.004,9.041,6.275,14.548,6.275s10.77-2.27,14.548-6.275l146.888-155.702
			C422.914,263.917,424.414,255.408,421.252,248.078z M256,382.556L155.476,276h41.768c11.046,0,20-8.954,20-20V40h77.51v216
			c0,11.046,8.954,20,20,20h41.77L256,382.556z"/>
	</g>
</g>
<g>
</g>
<g>
</g>
<g>
</g>
<g>
</g>
<g>
</g>
<g>
</g>
<g>
</g>
<g>
</g>
<g>
</g>
<g>
</g>
<g>
</g>
<g>
</g>
<g>
</g>
<g>
</g>
<g>
</g>
</svg>
