<?xml version="1.0" encoding="iso-8859-1"?>
<!-- Generator: Adobe Illustrator 19.0.0, SVG Export Plug-In . SVG Version: 6.00 Build 0)  -->
<svg version="1.1" id="Capa_1" xmlns="http://www.w3.org/2000/svg" xmlns:xlink="http://www.w3.org/1999/xlink" x="0px" y="0px"
	 viewBox="0 0 512 512" style="enable-background:new 0 0 512 512;" xml:space="preserve">
<g>
	<g>
		<path d="M492,324.133c-11.046,0-20,8.954-20,20v118.49c0,5.17-4.207,9.377-9.378,9.377H49.378c-5.171,0-9.378-4.206-9.378-9.377
			v-118.49c0-11.046-8.954-20-20-20s-20,8.954-20,20v118.49C0,489.85,22.151,512,49.378,512h413.244
			C489.849,512,512,489.85,512,462.623v-118.49C512,333.087,503.046,324.133,492,324.133z"/>
	</g>
</g>
<g>
	<g>
		<path d="M417.436,161.976L270.548,6.275C266.77,2.271,261.507,0,256,0s-10.77,2.271-14.548,6.275L94.564,161.977
			c-5.478,5.807-6.978,14.316-3.816,21.646s10.381,12.078,18.364,12.078h68.133v216c0,11.046,8.954,20,20,20h117.51
			c11.046,0,20-8.954,20-20.001v-216h68.133c7.983,0,15.201-4.748,18.364-12.078C424.415,176.292,422.915,167.783,417.436,161.976z
			 M314.755,155.701c-11.046,0-20,8.954-20,20v216h-77.509v-216c0-11.046-8.954-20-20-20h-41.77L256,49.145l100.525,106.556H314.755
			z"/>
	</g>
</g>
<g>
</g>
<g>
</g>
<g>
</g>
<g>
</g>
<g>
</g>
<g>
</g>
<g>
</g>
<g>
</g>
<g>
</g>
<g>
</g>
<g>
</g>
<g>
</g>
<g>
</g>
<g>
</g>
<g>
</g>
</svg>
