<?xml version="1.0" encoding="iso-8859-1"?>
<!-- Generator: Adobe Illustrator 19.0.0, SVG Export Plug-In . SVG Version: 6.00 Build 0)  -->
<svg version="1.1" id="Capa_1" xmlns="http://www.w3.org/2000/svg" xmlns:xlink="http://www.w3.org/1999/xlink" x="0px" y="0px"
	 viewBox="0 0 512 512" style="enable-background:new 0 0 512 512;" xml:space="preserve">
<g>
	<g>
		<path d="M446,197.809h-20V170C426,76.262,349.738,0,256,0C187.526,0,126.044,40.752,99.368,103.822
			c-4.303,10.173,0.456,21.908,10.629,26.211c10.171,4.302,21.908-0.456,26.211-10.629C156.61,71.168,203.631,40,256,40
			c71.683,0,130,58.318,130,130v27.809H66c-11.046,0-20,8.954-20,20V492c0,11.046,8.954,20,20,20h380c11.046,0,20-8.954,20-20
			V217.809C466,206.763,457.046,197.809,446,197.809z M426,472H86V237.809h340V472z"/>
	</g>
</g>
<g>
	<g>
		<path d="M256,294.905c-33.084,0-60,26.916-60,60c0,33.084,26.916,60,60,60s60-26.916,60-60
			C316,321.821,289.084,294.905,256,294.905z M256,374.905c-11.028,0-20-8.972-20-20c0-11.028,8.972-20,20-20s20,8.972,20,20
			C276,365.933,267.028,374.905,256,374.905z"/>
	</g>
</g>
<g>
</g>
<g>
</g>
<g>
</g>
<g>
</g>
<g>
</g>
<g>
</g>
<g>
</g>
<g>
</g>
<g>
</g>
<g>
</g>
<g>
</g>
<g>
</g>
<g>
</g>
<g>
</g>
<g>
</g>
</svg>
