<?xml version="1.0" encoding="iso-8859-1"?>
<!-- Generator: Adobe Illustrator 19.0.0, SVG Export Plug-In . SVG Version: 6.00 Build 0)  -->
<svg version="1.1" id="Capa_1" xmlns="http://www.w3.org/2000/svg" xmlns:xlink="http://www.w3.org/1999/xlink" x="0px" y="0px"
	 viewBox="0 0 512 512" style="enable-background:new 0 0 512 512;" xml:space="preserve">
<g>
	<g>
		<path d="M506.143,5.858C502.392,2.107,497.304,0,491.999,0L306.528,0.007c-5.304,0-10.391,2.108-14.142,5.858L5.857,292.393
			C2.107,296.143,0,301.231,0,306.535c0,5.304,2.107,10.392,5.857,14.142l185.465,185.465c3.751,3.751,8.838,5.858,14.143,5.858
			s10.391-2.107,14.142-5.858l286.528-286.528c3.75-3.75,5.857-8.837,5.857-14.141L512,20.001
			C512,14.696,509.894,9.609,506.143,5.858z M471.992,197.188L205.465,463.716L48.284,306.535L314.812,40.007l157.187-0.006
			L471.992,197.188z"/>
	</g>
</g>
<g>
	<g>
		<path d="M417.402,94.599c-24.161-24.159-63.471-24.16-87.634,0c-24.16,24.161-24.16,63.472,0,87.633
			c24.162,24.161,63.471,24.161,87.634,0C441.562,158.071,441.562,118.76,417.402,94.599z M389.116,153.947
			c-8.562,8.564-22.497,8.565-31.063,0c-8.564-8.564-8.564-22.5,0-31.064c8.564-8.564,22.499-8.564,31.063,0
			C397.68,131.447,397.68,145.383,389.116,153.947z"/>
	</g>
</g>
<g>
</g>
<g>
</g>
<g>
</g>
<g>
</g>
<g>
</g>
<g>
</g>
<g>
</g>
<g>
</g>
<g>
</g>
<g>
</g>
<g>
</g>
<g>
</g>
<g>
</g>
<g>
</g>
<g>
</g>
</svg>
