<?xml version="1.0" encoding="iso-8859-1"?>
<!-- Generator: Adobe Illustrator 19.0.0, SVG Export Plug-In . SVG Version: 6.00 Build 0)  -->
<svg version="1.1" id="Capa_1" xmlns="http://www.w3.org/2000/svg" xmlns:xlink="http://www.w3.org/1999/xlink" x="0px" y="0px"
	 viewBox="0 0 512 512" style="enable-background:new 0 0 512 512;" xml:space="preserve">
<g>
	<g>
		<path d="M511.343,310.65L433.609,14.916C431.3,6.126,423.354,0,414.267,0H97.733C88.646,0,80.7,6.126,78.391,14.916L0.657,310.65
			C0.212,312.343,0,314.139,0,315.734V492c0,11.046,8.954,20,20,20h472c11.046,0,20-8.954,20-20V315.734
			C512,314.105,511.78,312.314,511.343,310.65z M113.155,40h285.689l67.219,255.734H353.926c-11.046,0-20,8.954-20,20v58.34H178.074
			v-58.34c0-11.046-8.954-20-20-20H45.937L113.155,40z M472,472H40V335.734h98.074v58.34c0,11.046,8.954,20,20,20h195.852
			c11.046,0,20-8.954,20-20v-58.34H472V472z"/>
	</g>
</g>
<g>
</g>
<g>
</g>
<g>
</g>
<g>
</g>
<g>
</g>
<g>
</g>
<g>
</g>
<g>
</g>
<g>
</g>
<g>
</g>
<g>
</g>
<g>
</g>
<g>
</g>
<g>
</g>
<g>
</g>
</svg>
