<?xml version="1.0" encoding="iso-8859-1"?>
<!-- Generator: Adobe Illustrator 19.0.0, SVG Export Plug-In . SVG Version: 6.00 Build 0)  -->
<svg version="1.1" id="Capa_1" xmlns="http://www.w3.org/2000/svg" xmlns:xlink="http://www.w3.org/1999/xlink" x="0px" y="0px"
	 viewBox="0 0 512 512" style="enable-background:new 0 0 512 512;" xml:space="preserve">
<g>
	<g>
		<path d="M256,0C114.507,0,0,114.497,0,256c0,141.493,114.497,256,256,256c141.493,0,256-114.497,256-256
			C512,114.507,397.503,0,256,0z M40,256c0-119.385,96.607-216,216-216c50.976,0,99.249,17.55,137.942,49.774L89.774,393.942
			C57.55,355.249,40,306.976,40,256z M256,472c-50.976,0-99.249-17.55-137.942-49.774l304.169-304.169
			C454.45,156.751,472,205.024,472,256C472,375.385,375.393,472,256,472z"/>
	</g>
</g>
<g>
</g>
<g>
</g>
<g>
</g>
<g>
</g>
<g>
</g>
<g>
</g>
<g>
</g>
<g>
</g>
<g>
</g>
<g>
</g>
<g>
</g>
<g>
</g>
<g>
</g>
<g>
</g>
<g>
</g>
</svg>
