<?xml version="1.0" encoding="iso-8859-1"?>
<!-- Generator: Adobe Illustrator 19.0.0, SVG Export Plug-In . SVG Version: 6.00 Build 0)  -->
<svg version="1.1" id="Capa_1" xmlns="http://www.w3.org/2000/svg" xmlns:xlink="http://www.w3.org/1999/xlink" x="0px" y="0px"
	 viewBox="0 0 512 512" style="enable-background:new 0 0 512 512;" xml:space="preserve">
<g>
	<g>
		<path d="M394.074,187h-25.237c-26.833-59.16-86.226-98-152.007-98c-71.875,0-135.752,46.472-158.309,114.049
			C22.955,223.823,0,262.183,0,305c0,65.065,52.901,118,117.925,118h276.149C459.099,423,512,370.065,512,305
			S459.099,187,394.074,187z M394.074,383H117.925C74.957,383,40,348.009,40,305c0-30.15,16.85-57.06,43.973-70.229
			c5.173-2.512,9.014-7.128,10.544-12.671c15.127-54.816,65.424-93.1,122.313-93.1c53.686,0,101.773,34.023,119.659,84.661
			c2.824,7.994,10.38,13.339,18.858,13.339h38.727C437.043,227,472,261.991,472,305C472,348.009,437.043,383,394.074,383z"/>
	</g>
</g>
<g>
</g>
<g>
</g>
<g>
</g>
<g>
</g>
<g>
</g>
<g>
</g>
<g>
</g>
<g>
</g>
<g>
</g>
<g>
</g>
<g>
</g>
<g>
</g>
<g>
</g>
<g>
</g>
<g>
</g>
</svg>
