<?xml version="1.0" encoding="iso-8859-1"?>
<!-- Generator: Adobe Illustrator 19.0.0, SVG Export Plug-In . SVG Version: 6.00 Build 0)  -->
<svg version="1.1" id="Capa_1" xmlns="http://www.w3.org/2000/svg" xmlns:xlink="http://www.w3.org/1999/xlink" x="0px" y="0px"
	 viewBox="0 0 512 512" style="enable-background:new 0 0 512 512;" xml:space="preserve">
<g>
	<g>
		<path d="M442.669,421.213l-48.613-73.316V182.556c0-71.518-51.376-130.882-118.056-140.907V20c0-11.046-8.954-20-20-20
			c-11.046,0-20,8.954-20,20v21.649c-66.68,10.025-118.056,69.39-118.056,140.907v165.341l-48.613,73.316
			c-4.071,6.14-4.438,14.021-0.953,20.511c3.484,6.491,10.255,10.541,17.622,10.541h94.863C189.524,486.583,219.927,512,256.001,512
			c36.074,0,66.477-25.417,75.137-59.734h94.863c7.367,0,14.137-4.05,17.622-10.541
			C447.107,435.234,446.741,427.353,442.669,421.213z M256.001,472c-13.842,0-25.96-7.939-32.491-19.734h64.981
			C281.961,464.061,269.843,472,256.001,472z M123.259,412.266l31.354-47.288c2.173-3.276,3.332-7.121,3.332-11.052v-171.37
			c0-56.467,43.988-102.407,98.056-102.407s98.056,45.939,98.056,102.407v171.369c0,3.932,1.159,7.776,3.332,11.052l31.354,47.288
			C376.937,412.266,128.322,412.266,123.259,412.266z"/>
	</g>
</g>
<g>
</g>
<g>
</g>
<g>
</g>
<g>
</g>
<g>
</g>
<g>
</g>
<g>
</g>
<g>
</g>
<g>
</g>
<g>
</g>
<g>
</g>
<g>
</g>
<g>
</g>
<g>
</g>
<g>
</g>
</svg>
