<?xml version="1.0" encoding="iso-8859-1"?>
<!-- Generator: Adobe Illustrator 19.0.0, SVG Export Plug-In . SVG Version: 6.00 Build 0)  -->
<svg version="1.1" id="Capa_1" xmlns="http://www.w3.org/2000/svg" xmlns:xlink="http://www.w3.org/1999/xlink" x="0px" y="0px"
	 viewBox="0 0 512 512" style="enable-background:new 0 0 512 512;" xml:space="preserve">
<g>
	<g>
		<path d="M492,122H268.608l-33.734-70.621C231.552,44.427,224.532,40,216.827,40H20C8.954,40,0,48.954,0,60
			c0,14.441,0,377.607,0,392c0,11.046,8.954,20,20,20h472c11.046,0,20-8.954,20-20V142C512,130.954,503.046,122,492,122z M40,80
			h164.216l20.063,42H40V80z M472,432H40V162c6.177,0,425.823,0,432,0V432z"/>
	</g>
</g>
<g>
</g>
<g>
</g>
<g>
</g>
<g>
</g>
<g>
</g>
<g>
</g>
<g>
</g>
<g>
</g>
<g>
</g>
<g>
</g>
<g>
</g>
<g>
</g>
<g>
</g>
<g>
</g>
<g>
</g>
</svg>
