<?xml version="1.0" encoding="iso-8859-1"?>
<!-- Generator: Adobe Illustrator 19.0.0, SVG Export Plug-In . SVG Version: 6.00 Build 0)  -->
<svg version="1.1" id="Capa_1" xmlns="http://www.w3.org/2000/svg" xmlns:xlink="http://www.w3.org/1999/xlink" x="0px" y="0px"
	 viewBox="0 0 512 512" style="enable-background:new 0 0 512 512;" xml:space="preserve">
<g>
	<g>
		<path d="M256,0C114.507,0,0,114.497,0,256c0,141.492,114.497,256,256,256c141.493,0,256-114.497,256-256
			C512,114.508,397.503,0,256,0z M434.203,133.857c-20.535,5.497-43.077,9.967-67.066,13.328
			c-4.004-30.956-9.711-59.892-16.942-85.672C384.486,78.155,413.304,103.502,434.203,133.857z M209.061,45.092
			C224.302,41.732,240.017,40,256,40c15.983,0,31.698,1.732,46.939,5.092c10.919,29.587,19.232,66.071,24.485,106.53
			c-45.391,3.849-95.091,4.05-142.848,0C189.829,111.164,198.142,74.68,209.061,45.092z M57.826,342.184
			C46.147,315.348,40,286.148,40,256s6.147-59.348,17.826-86.185c25.029,7.261,52.996,13.024,82.924,17.158
			c-3.468,44.18-3.664,91.384,0,138.053C110.822,329.161,82.855,334.924,57.826,342.184z M77.797,378.142
			c20.535-5.497,43.077-9.967,67.066-13.328c4.004,30.956,9.711,59.893,16.942,85.672
			C127.517,433.846,98.698,408.501,77.797,378.142z M144.863,147.185c-23.99-3.361-46.531-7.831-67.066-13.328
			c20.895-30.349,49.71-55.698,84.008-72.344C154.574,87.292,148.867,116.229,144.863,147.185z M302.939,466.908
			C287.698,470.269,271.983,472,256,472c-15.983,0-31.698-1.732-46.939-5.092c-10.919-29.587-19.232-66.071-24.485-106.53
			c45.393-3.849,95.092-4.049,142.848,0C322.171,400.837,313.858,437.321,302.939,466.908z M331.501,320.597
			c-48.299-4.152-100.605-4.332-151.002,0c-3.185-41.78-3.28-86.165,0-129.195c48.193,4.142,100.5,4.341,151.002,0
			C334.693,233.272,334.775,277.656,331.501,320.597z M350.195,450.487c7.231-25.779,12.938-54.716,16.942-85.672
			c23.989,3.361,46.531,7.831,67.066,13.328C413.309,408.49,384.497,433.84,350.195,450.487z M371.25,325.026
			c3.468-44.176,3.664-91.382,0-138.053c29.928-4.135,57.894-9.898,82.924-17.159C465.853,196.652,472,225.852,472,256
			s-6.147,59.348-17.826,86.185C429.145,334.924,401.178,329.161,371.25,325.026z"/>
	</g>
</g>
<g>
</g>
<g>
</g>
<g>
</g>
<g>
</g>
<g>
</g>
<g>
</g>
<g>
</g>
<g>
</g>
<g>
</g>
<g>
</g>
<g>
</g>
<g>
</g>
<g>
</g>
<g>
</g>
<g>
</g>
</svg>
