<?xml version="1.0" encoding="iso-8859-1"?>
<!-- Generator: Adobe Illustrator 19.0.0, SVG Export Plug-In . SVG Version: 6.00 Build 0)  -->
<svg version="1.1" id="Capa_1" xmlns="http://www.w3.org/2000/svg" xmlns:xlink="http://www.w3.org/1999/xlink" x="0px" y="0px"
	 viewBox="0 0 512 512" style="enable-background:new 0 0 512 512;" xml:space="preserve">
<g>
	<g>
		<path d="M376,0H136c-27.57,0-50,22.43-50,50v412c0,27.57,22.43,50,50,50h240c27.57,0,50-22.43,50-50V50C426,22.43,403.57,0,376,0z
			 M386,462c0,5.514-4.486,10-10,10H136c-5.514,0-10-4.486-10-10V50c0-5.514,4.486-10,10-10h240c5.514,0,10,4.486,10,10V462z"/>
	</g>
</g>
<g>
	<g>
		<path d="M346,60H166c-11.046,0-20,8.954-20,20v301.909c0,11.046,8.954,20,20,20h180c11.046,0,20-8.954,20-20V80
			C366,68.954,357.046,60,346,60z M326,361.909H186V100h140V361.909z"/>
	</g>
</g>
<g>
	<g>
		<path d="M276,416.954h-40c-11.046,0-20,8.954-20,20c0,11.046,8.954,20,20,20h40c11.046,0,20-8.954,20-20
			C296,425.908,287.046,416.954,276,416.954z"/>
	</g>
</g>
<g>
</g>
<g>
</g>
<g>
</g>
<g>
</g>
<g>
</g>
<g>
</g>
<g>
</g>
<g>
</g>
<g>
</g>
<g>
</g>
<g>
</g>
<g>
</g>
<g>
</g>
<g>
</g>
<g>
</g>
</svg>
