<?xml version="1.0" encoding="iso-8859-1"?>
<!-- Generator: Adobe Illustrator 19.0.0, SVG Export Plug-In . SVG Version: 6.00 Build 0)  -->
<svg version="1.1" id="Capa_1" xmlns="http://www.w3.org/2000/svg" xmlns:xlink="http://www.w3.org/1999/xlink" x="0px" y="0px"
	 viewBox="0 0 512 512" style="enable-background:new 0 0 512 512;" xml:space="preserve">
<g>
	<g>
		<path d="M391.851,121H120.149c-11.046,0-20,8.954-20,20v140c0,11.046,8.954,20,20,20H391.85c11.046,0,20-8.954,20-20V141
			C411.851,129.954,402.896,121,391.851,121z M140.149,261V161H371.85v100H140.149z"/>
	</g>
</g>
<g>
	<g>
		<path d="M492,321h-20.149V111c0-27.57-22.43-50-50-50H90.149c-27.57,0-50,22.43-50,50v210H20c-11.046,0-20,8.954-20,20v60
			c0,27.57,22.43,50,50,50h412c27.57,0,50-22.43,50-50v-60C512,329.954,503.046,321,492,321z M80.149,111c0-5.514,4.486-10,10-10
			H421.85c5.514,0,10,4.486,10,10v210H80.149V111z M472,401c0,5.514-4.486,10-10,10H50c-5.514,0-10-4.486-10-10v-40
			c26.131,0,407.942,0,432,0V401z"/>
	</g>
</g>
<g>
</g>
<g>
</g>
<g>
</g>
<g>
</g>
<g>
</g>
<g>
</g>
<g>
</g>
<g>
</g>
<g>
</g>
<g>
</g>
<g>
</g>
<g>
</g>
<g>
</g>
<g>
</g>
<g>
</g>
</svg>
