<?xml version="1.0" encoding="iso-8859-1"?>
<!-- Generator: Adobe Illustrator 19.0.0, SVG Export Plug-In . SVG Version: 6.00 Build 0)  -->
<svg version="1.1" id="Capa_1" xmlns="http://www.w3.org/2000/svg" xmlns:xlink="http://www.w3.org/1999/xlink" x="0px" y="0px"
	 viewBox="0 0 512 512" style="enable-background:new 0 0 512 512;" xml:space="preserve">
<g>
	<g>
		<path d="M506.142,144.346L367.655,5.857C363.904,2.107,358.817,0,353.513,0H20C8.954,0,0,8.954,0,20v472c0,11.046,8.954,20,20,20
			c8.111,0,466.662,0,472,0c11.046,0,20-8.954,20-20V158.487C512,153.183,509.893,148.096,506.142,144.346z M382.888,472H129.112
			V276h253.776V472z M472,472h-49.112V256c0-11.046-8.954-20-20-20H109.112c-11.046,0-20,8.954-20,20v216H40V40h305.229L472,166.771
			V472z"/>
	</g>
</g>
<g>
</g>
<g>
</g>
<g>
</g>
<g>
</g>
<g>
</g>
<g>
</g>
<g>
</g>
<g>
</g>
<g>
</g>
<g>
</g>
<g>
</g>
<g>
</g>
<g>
</g>
<g>
</g>
<g>
</g>
</svg>
