<?xml version="1.0" encoding="iso-8859-1"?>
<!-- Generator: Adobe Illustrator 19.0.0, SVG Export Plug-In . SVG Version: 6.00 Build 0)  -->
<svg version="1.1" id="Capa_1" xmlns="http://www.w3.org/2000/svg" xmlns:xlink="http://www.w3.org/1999/xlink" x="0px" y="0px"
	 viewBox="0 0 512 512" style="enable-background:new 0 0 512 512;" xml:space="preserve">
<g>
	<g>
		<path d="M360.233,121.189c11.046,0,20-8.954,20-20V49.378C380.232,22.151,357.837,0,330.31,0H90.923C63.396,0,41,22.151,41,49.378
			v413.244C41,489.849,63.396,512,90.923,512H330.31c27.527,0,49.923-22.151,49.923-49.378v-51.811
			c-0.001-11.045-8.955-19.999-20.001-19.999c-11.046,0-20,8.954-20,20v51.811c0,5.171-4.451,9.378-9.923,9.378H90.923
			c-5.472,0-9.923-4.207-9.923-9.378V49.378C81,44.207,85.452,40,90.923,40H330.31c5.472,0,9.923,4.207,9.923,9.378v51.811
			C340.233,112.235,349.187,121.189,360.233,121.189z"/>
	</g>
</g>
<g>
	<g>
		<path d="M451,236H259.772l71.251-69.482c7.908-7.711,8.067-20.374,0.355-28.281c-7.712-7.909-20.374-8.068-28.281-0.355
			l-106.444,103.8c-8.049,7.841-8.047,20.797,0,28.637L303.097,374.12c7.907,7.712,20.571,7.553,28.281-0.355
			c7.712-7.907,7.553-20.57-0.355-28.281L259.772,276H451c11.046,0,20-8.954,20-20C471,244.954,462.046,236,451,236z"/>
	</g>
</g>
<g>
</g>
<g>
</g>
<g>
</g>
<g>
</g>
<g>
</g>
<g>
</g>
<g>
</g>
<g>
</g>
<g>
</g>
<g>
</g>
<g>
</g>
<g>
</g>
<g>
</g>
<g>
</g>
<g>
</g>
</svg>
