<?xml version="1.0" encoding="iso-8859-1"?>
<!-- Generator: Adobe Illustrator 19.0.0, SVG Export Plug-In . SVG Version: 6.00 Build 0)  -->
<svg version="1.1" id="Capa_1" xmlns="http://www.w3.org/2000/svg" xmlns:xlink="http://www.w3.org/1999/xlink" x="0px" y="0px"
	 viewBox="0 0 512 512" style="enable-background:new 0 0 512 512;" xml:space="preserve">
<g>
	<g>
		<path stroke="null" fill="#000000" id="svg_6" d="m478.17189,77.81818l-444.34377,0c-10.39877,0 -18.82813,7.9365 -18.82813,17.72727s8.42935,17.72727 18.82813,17.72727l444.34377,0c10.39877,0 18.82813,-7.9365 18.82813,-17.72727s-8.42935,-17.72727 -18.82813,-17.72727z"/>
	</g>
</g>
<g>
	<g>
		<path stroke="null" fill="#000000" id="svg_31" d="m478.17188,238.27281l-444.34376,0c-10.39878,0 -18.82813,7.9365 -18.82813,17.72727s8.42935,17.72728 18.82813,17.72728l444.34376,0c10.39878,0 18.82813,-7.9365 18.82813,-17.72728s-8.42935,-17.72727 -18.82813,-17.72727z"/>
	</g>
</g>
<g>
	<g>
		<path stroke="null" fill="#000000" id="svg_34" d="m478.17187,398.27192l-444.34376,0c-10.39878,0 -18.82813,7.9365 -18.82813,17.72727s8.42935,17.72728 18.82813,17.72728l444.34376,0c10.39878,0 18.82813,-7.9365 18.82813,-17.72728s-8.42935,-17.72727 -18.82813,-17.72727z"/>
	</g>
</g>

</svg>
