<?xml version="1.0" encoding="iso-8859-1"?>
<!-- Generator: Adobe Illustrator 19.0.0, SVG Export Plug-In . SVG Version: 6.00 Build 0)  -->
<svg version="1.1" id="Capa_1" xmlns="http://www.w3.org/2000/svg" xmlns:xlink="http://www.w3.org/1999/xlink" x="0px" y="0px"
	 viewBox="0 0 512 512" style="enable-background:new 0 0 512 512;" xml:space="preserve">
<g>
	<g>
		<path d="M462,76H50C22.43,76,0,98.43,0,126c0,7.142,0,256.163,0,260c0,27.57,22.43,50,50,50h412c27.57,0,50-22.43,50-50
			c0-13.477,0-250.458,0-260C512,98.43,489.57,76,462,76z M472,386c0,5.514-4.486,10-10,10H50c-5.514,0-10-4.486-10-10V286h432V386z
			 M472,246H40v-60h432V246z M472,146H40v-20c0-5.514,4.486-10,10-10h412c5.514,0,10,4.486,10,10V146z"/>
	</g>
</g>
<g>
</g>
<g>
</g>
<g>
</g>
<g>
</g>
<g>
</g>
<g>
</g>
<g>
</g>
<g>
</g>
<g>
</g>
<g>
</g>
<g>
</g>
<g>
</g>
<g>
</g>
<g>
</g>
<g>
</g>
</svg>
