<?xml version="1.0" encoding="iso-8859-1"?>
<!-- Generator: Adobe Illustrator 19.0.0, SVG Export Plug-In . SVG Version: 6.00 Build 0)  -->
<svg version="1.1" id="Capa_1" xmlns="http://www.w3.org/2000/svg" xmlns:xlink="http://www.w3.org/1999/xlink" x="0px" y="0px"
	 viewBox="0 0 512 512" style="enable-background:new 0 0 512 512;" xml:space="preserve">
<g>
	<g>
		<path d="M117.925,293.776H20c-11.046,0-20,8.954-20,20V492c0,11.046,8.954,20,20,20h97.925c11.046,0,20-8.954,20-20V313.776
			C137.925,302.73,128.971,293.776,117.925,293.776z M97.925,472H40V333.776h57.925V472z"/>
	</g>
</g>
<g>
	<g>
		<path d="M492,0h-97.925c-11.046,0-20,8.954-20,20v472c0,11.046,8.954,20,20,20H492c11.046,0,20-8.954,20-20V20
			C512,8.954,503.046,0,492,0z M472,472h-57.925V40H472V472z"/>
	</g>
</g>
<g>
	<g>
		<path d="M304.963,146.888h-97.926c-11.046,0-20,8.954-20,20V492c0,11.046,8.954,20,20,20h97.926c11.046,0,20-8.954,20-20V166.888
			C324.963,155.842,316.009,146.888,304.963,146.888z M284.963,472h-57.926V186.888h57.926V472z"/>
	</g>
</g>
<g>
</g>
<g>
</g>
<g>
</g>
<g>
</g>
<g>
</g>
<g>
</g>
<g>
</g>
<g>
</g>
<g>
</g>
<g>
</g>
<g>
</g>
<g>
</g>
<g>
</g>
<g>
</g>
<g>
</g>
</svg>
