<?xml version="1.0" encoding="iso-8859-1"?>
<!-- Generator: Adobe Illustrator 19.0.0, SVG Export Plug-In . SVG Version: 6.00 Build 0)  -->
<svg version="1.1" id="Capa_1" xmlns="http://www.w3.org/2000/svg" xmlns:xlink="http://www.w3.org/1999/xlink" x="0px" y="0px"
	 viewBox="0 0 512.002 512.002" style="enable-background:new 0 0 512.002 512.002;" xml:space="preserve">
<g>
	<g>
		<path d="M265.337,97.314c-6.56-3.462-14.494-3.011-20.619,1.172l-112.897,77.125H20c-11.046,0-20,8.954-20,20v120.778
			c0,11.046,8.954,20,20,20h111.821l112.897,77.126c6.123,4.182,14.06,4.635,20.619,1.172c6.559-3.462,10.663-10.269,10.663-17.686
			v-282C276,107.585,271.896,100.777,265.337,97.314z M236,359.116l-86.718-59.241c-3.324-2.271-7.256-3.485-11.282-3.485H40
			v-80.779h98c4.026,0,7.958-1.215,11.282-3.485L236,152.885V359.116z"/>
	</g>
</g>
<g>
	<g>
		<path d="M506.291,333.008l-75.411-77.007l75.409-77.007c7.728-7.892,7.596-20.555-0.296-28.283
			c-7.892-7.727-20.554-7.594-28.283,0.297l-74.823,76.408l-74.823-76.408c-7.729-7.892-20.391-8.025-28.283-0.297
			c-7.892,7.729-8.024,20.392-0.296,28.283l75.411,77.007l-75.409,77.007c-7.728,7.892-7.596,20.555,0.296,28.283
			c7.895,7.729,20.556,7.593,28.283-0.297l74.823-76.408l74.823,76.408c7.731,7.893,20.392,8.023,28.283,0.297
			C513.887,353.562,514.019,340.899,506.291,333.008z"/>
	</g>
</g>
<g>
</g>
<g>
</g>
<g>
</g>
<g>
</g>
<g>
</g>
<g>
</g>
<g>
</g>
<g>
</g>
<g>
</g>
<g>
</g>
<g>
</g>
<g>
</g>
<g>
</g>
<g>
</g>
<g>
</g>
</svg>
