<?xml version="1.0" encoding="iso-8859-1"?>
<!-- Generator: Adobe Illustrator 19.0.0, SVG Export Plug-In . SVG Version: 6.00 Build 0)  -->
<svg version="1.1" id="Capa_1" xmlns="http://www.w3.org/2000/svg" xmlns:xlink="http://www.w3.org/1999/xlink" x="0px" y="0px"
	 viewBox="0 0 512 512" style="enable-background:new 0 0 512 512;" xml:space="preserve">
<g>
	<g>
		<path d="M265.336,97.323c-6.558-3.463-14.496-3.012-20.619,1.172L131.82,175.621H20c-11.046,0-20,8.954-20,20v120.777
			c0,11.046,8.954,20,20,20h111.82l112.897,77.126c6.112,4.175,14.048,4.64,20.619,1.17c6.559-3.461,10.663-10.269,10.663-17.686
			V115.009C275.999,107.592,271.895,100.785,265.336,97.323z M235.999,359.124l-86.718-59.241c-3.325-2.27-7.256-3.485-11.282-3.485
			H40v-80.777h97.999c4.026,0,7.958-1.215,11.282-3.485l86.718-59.241V359.124z"/>
	</g>
</g>
<g>
	<g>
		<path d="M422.561,80.436c-8.597-6.936-21.188-5.592-28.124,3.005c-6.936,8.596-5.592,21.188,3.005,28.124
			c99.487,80.284,99.455,208.612,0,288.87c-8.597,6.937-9.941,19.528-3.005,28.124c6.937,8.596,19.527,9.942,28.124,3.004
			C541.681,335.439,541.946,176.774,422.561,80.436z"/>
	</g>
</g>
<g>
	<g>
		<path d="M374.447,119.262c-8.596-6.936-21.189-5.591-28.124,3.005c-6.936,8.596-5.591,21.188,3.005,28.124
			c72.938,58.86,72.902,152.389,0,211.219c-8.597,6.937-9.941,19.528-3.005,28.124c6.937,8.596,19.527,9.942,28.124,3.004
			C467.434,317.703,467.114,194.039,374.447,119.262z"/>
	</g>
</g>
<g>
	<g>
		<path d="M326.334,158.087c-8.597-6.937-21.189-5.59-28.124,3.005c-6.936,8.596-5.592,21.188,3.005,28.124
			c46.475,37.505,46.434,96.098,0,133.568c-8.597,6.937-9.941,19.528-3.005,28.124c6.937,8.596,19.527,9.942,28.124,3.004
			C392.806,300.272,392.58,211.544,326.334,158.087z"/>
	</g>
</g>
<g>
</g>
<g>
</g>
<g>
</g>
<g>
</g>
<g>
</g>
<g>
</g>
<g>
</g>
<g>
</g>
<g>
</g>
<g>
</g>
<g>
</g>
<g>
</g>
<g>
</g>
<g>
</g>
<g>
</g>
</svg>
