<?xml version="1.0" encoding="iso-8859-1"?>
<!-- Generator: Adobe Illustrator 19.0.0, SVG Export Plug-In . SVG Version: 6.00 Build 0)  -->
<svg version="1.1" id="Capa_1" xmlns="http://www.w3.org/2000/svg" xmlns:xlink="http://www.w3.org/1999/xlink" x="0px" y="0px"
	 viewBox="0 0 512 512" style="enable-background:new 0 0 512 512;" xml:space="preserve">
<g>
	<g>
		<path d="M406,48.963H305.068c-8.195,0-15.422-4.728-18.41-12.044C277.498,14.492,255.736,0,231.217,0H106C94.954,0,86,8.954,86,20
			c0,10.232,0,461.767,0,472c0,11.046,8.954,20,20,20s20-8.954,20-20V276h105.217c8.196,0,15.423,4.728,18.411,12.045
			c9.161,22.427,30.923,36.918,55.44,36.918H406c11.046,0,20-8.954,20-20v-236C426,57.917,417.046,48.963,406,48.963z M386,284.963
			h-80.932c-8.195,0-15.422-4.728-18.41-12.044C277.498,250.492,255.736,236,231.217,236H126V40h105.217
			c8.196,0,15.423,4.728,18.411,12.045c9.161,22.427,30.923,36.918,55.44,36.918H386V284.963z"/>
	</g>
</g>
<g>
</g>
<g>
</g>
<g>
</g>
<g>
</g>
<g>
</g>
<g>
</g>
<g>
</g>
<g>
</g>
<g>
</g>
<g>
</g>
<g>
</g>
<g>
</g>
<g>
</g>
<g>
</g>
<g>
</g>
</svg>
