<?xml version="1.0" encoding="iso-8859-1"?>
<!-- Generator: Adobe Illustrator 19.0.0, SVG Export Plug-In . SVG Version: 6.00 Build 0)  -->
<svg version="1.1" id="Capa_1" xmlns="http://www.w3.org/2000/svg" xmlns:xlink="http://www.w3.org/1999/xlink" x="0px" y="0px"
	 viewBox="0 0 512 512" style="enable-background:new 0 0 512 512;" xml:space="preserve">
<g>
	<g>
		<path d="M462.623,111H408.2V40c0-11.046-8.954-20-20-20H123.801c-11.046,0-20,8.954-20,20v71H49.377C22.151,111,0,133.43,0,161
			v190c0,27.57,22.151,50,49.377,50H103.8v71c0,11.046,8.954,20,20,20h264.398c11.046,0,20-8.954,20-20v-71h54.423
			C489.849,401,512,378.57,512,351V161C512,133.43,489.849,111,462.623,111z M143.801,60h224.398v51H143.801V60z M143.801,452
			c0-1.609,0-146.186,0-151h224.398c0,4.814,0,149.391,0,151H143.801z M462.623,361H408.2v-60H426c11.046,0,20-8.954,20-20
			c0-11.046-8.954-20-20-20c-12.042,0-326.542,0-340,0c-11.046,0-20,8.954-20,20c0,11.046,8.954,20,20,20h17.801v60H49.377
			c-5.17,0-9.377-4.486-9.377-10V161c0-5.514,4.207-10,9.377-10c6.677,0,405.541,0,413.245,0c5.171,0,9.377,4.486,9.377,10v190H472
			C472,356.514,467.793,361,462.623,361z"/>
	</g>
</g>
<g>
</g>
<g>
</g>
<g>
</g>
<g>
</g>
<g>
</g>
<g>
</g>
<g>
</g>
<g>
</g>
<g>
</g>
<g>
</g>
<g>
</g>
<g>
</g>
<g>
</g>
<g>
</g>
<g>
</g>
</svg>
