<?xml version="1.0" encoding="iso-8859-1"?>
<!-- Generator: Adobe Illustrator 19.0.0, SVG Export Plug-In . SVG Version: 6.00 Build 0)  -->
<svg version="1.1" id="Capa_1" xmlns="http://www.w3.org/2000/svg" xmlns:xlink="http://www.w3.org/1999/xlink" x="0px" y="0px"
	 viewBox="0 0 512 512" style="enable-background:new 0 0 512 512;" xml:space="preserve">
<g>
	<g>
		<path d="M406,0H106C94.954,0,86,8.954,86,20v471.999c0,8.27,5.089,15.686,12.805,18.661c7.714,2.974,16.465,0.895,22.018-5.234
			L256,356.2l135.177,149.226c5.552,6.13,14.302,8.209,22.018,5.234c7.716-2.975,12.805-10.391,12.805-18.661V20
			C426,8.954,417.046,0,406,0z M386,440.13L270.823,312.983c-3.792-4.185-9.176-6.573-14.823-6.573
			c-5.647,0-11.031,2.387-14.823,6.573L126,440.13V40h260V440.13z"/>
	</g>
</g>
<g>
</g>
<g>
</g>
<g>
</g>
<g>
</g>
<g>
</g>
<g>
</g>
<g>
</g>
<g>
</g>
<g>
</g>
<g>
</g>
<g>
</g>
<g>
</g>
<g>
</g>
<g>
</g>
<g>
</g>
</svg>
