<?xml version="1.0" encoding="iso-8859-1"?>
<!-- Generator: Adobe Illustrator 19.0.0, SVG Export Plug-In . SVG Version: 6.00 Build 0)  -->
<svg version="1.1" id="Capa_1" xmlns="http://www.w3.org/2000/svg" xmlns:xlink="http://www.w3.org/1999/xlink" x="0px" y="0px"
	 viewBox="0 0 512 512" style="enable-background:new 0 0 512 512;" xml:space="preserve">
<g>
	<g>
		<path d="M443,0H129.004C81.435,0,48.142,41.073,49.055,78.036c-0.077,3.175-0.05,350.687-0.05,353.964
			c0,44.112,35.887,80,79.999,80H443c11.046,0,20-8.954,20-20V20C463,8.954,454.046,0,443,0z M423,472H129.004
			c-22.056,0-40-17.944-40-40V144.594c11.448,6.501,24.664,10.234,38.743,10.234H423V472z M423,114.827H127.747
			c-20.705,0-37.668-16.331-38.693-36.792C90.082,56.889,107.607,40,129.004,40H423V114.827z"/>
	</g>
</g>
<g>
</g>
<g>
</g>
<g>
</g>
<g>
</g>
<g>
</g>
<g>
</g>
<g>
</g>
<g>
</g>
<g>
</g>
<g>
</g>
<g>
</g>
<g>
</g>
<g>
</g>
<g>
</g>
<g>
</g>
</svg>
