<?xml version="1.0" encoding="iso-8859-1"?>
<!-- Generator: Adobe Illustrator 19.0.0, SVG Export Plug-In . SVG Version: 6.00 Build 0)  -->
<svg version="1.1" id="Capa_1" xmlns="http://www.w3.org/2000/svg" xmlns:xlink="http://www.w3.org/1999/xlink" x="0px" y="0px"
	 viewBox="0 0 512 512" style="enable-background:new 0 0 512 512;" xml:space="preserve">
<g>
	<g>
		<path d="M462.622,127H361.845l-30.936-56.309C322.204,54.845,305.67,45,287.759,45h-63.518c-17.911,0-34.445,9.845-43.149,25.691
			L150.155,127H49.378C22.151,127,0,149.43,0,177v240c0,27.57,22.151,50,49.378,50h413.244C489.849,467,512,444.57,512,417V177
			C512,149.43,489.849,127,462.622,127z M472,417c0,5.514-4.207,10-9.378,10H49.378C44.207,427,40,422.514,40,417V177
			c0-5.514,4.207-10,9.378-10h112.609c7.297,0,14.015-3.974,17.528-10.37l36.634-66.68c1.678-3.053,4.779-4.95,8.092-4.95h63.518
			c3.314,0,6.414,1.897,8.093,4.951l36.633,66.679c3.512,6.395,10.231,10.37,17.528,10.37h112.609c5.171,0,9.378,4.486,9.378,10V417
			z"/>
	</g>
</g>
<g>
	<g>
		<path d="M256,217c-44.112,0-80,35.888-80,80s35.888,80,80,80s80-35.888,80-80S300.112,217,256,217z M256,337
			c-22.056,0-40-17.944-40-40c0-22.056,17.944-40,40-40c22.056,0,40,17.944,40,40C296,319.056,278.056,337,256,337z"/>
	</g>
</g>
<g>
</g>
<g>
</g>
<g>
</g>
<g>
</g>
<g>
</g>
<g>
</g>
<g>
</g>
<g>
</g>
<g>
</g>
<g>
</g>
<g>
</g>
<g>
</g>
<g>
</g>
<g>
</g>
<g>
</g>
</svg>
