<?xml version="1.0" encoding="iso-8859-1"?>
<!-- Generator: Adobe Illustrator 19.0.0, SVG Export Plug-In . SVG Version: 6.00 Build 0)  -->
<svg version="1.1" id="Capa_1" xmlns="http://www.w3.org/2000/svg" xmlns:xlink="http://www.w3.org/1999/xlink" x="0px" y="0px"
	 viewBox="0 0 512 512" style="enable-background:new 0 0 512 512;" xml:space="preserve">
<g>
	<g>
		<path d="M503.672,139.759c-5.229-3.757-11.947-4.77-18.049-2.715l-102.885,34.613V136c0-27.57-22.15-50-49.377-50H49.378
			C22.151,86,0,108.43,0,136v240c0,27.57,22.151,50,49.378,50h283.983c27.227,0,49.377-22.43,49.377-50v-35.657l102.885,34.613
			c6.103,2.053,12.82,1.042,18.049-2.715C508.9,368.483,512,362.438,512,356V156C512,149.562,508.9,143.517,503.672,139.759z
			 M472,328.17l-102.885-34.613c-12.954-4.359-26.377,5.301-26.377,18.956V376c0,5.514-4.206,10-9.377,10H49.378
			C44.207,386,40,381.514,40,376V136c0-5.514,4.207-10,9.378-10h283.983c5.171,0,9.377,4.486,9.377,10v63.487
			c0,13.667,13.431,23.309,26.377,18.956L472,183.83V328.17z"/>
	</g>
</g>
<g>
</g>
<g>
</g>
<g>
</g>
<g>
</g>
<g>
</g>
<g>
</g>
<g>
</g>
<g>
</g>
<g>
</g>
<g>
</g>
<g>
</g>
<g>
</g>
<g>
</g>
<g>
</g>
<g>
</g>
</svg>
