<?xml version="1.0" encoding="iso-8859-1"?>
<!-- Generator: Adobe Illustrator 19.0.0, SVG Export Plug-In . SVG Version: 6.00 Build 0)  -->
<svg version="1.1" id="Capa_1" xmlns="http://www.w3.org/2000/svg" xmlns:xlink="http://www.w3.org/1999/xlink" x="0px" y="0px"
	 viewBox="0 0 512 512" style="enable-background:new 0 0 512 512;" xml:space="preserve">
<g>
	<g>
		<path d="M344.036,79.74L270.138,5.842c-7.931-7.931-20.648-7.637-28.285,0L167.955,79.74c-7.811,7.811-7.811,20.476,0,28.286
			c7.81,7.809,20.474,7.81,28.285,0l39.754-39.754V214.46c0,11.047,8.954,20.001,20.001,20.001c11.047,0,20.001-8.954,20.001-20.001
			V68.272l39.754,39.754c7.809,7.809,20.473,7.81,28.286,0C351.848,100.215,351.848,87.55,344.036,79.74z"/>
	</g>
</g>
<g>
	<g>
		<path d="M344.036,403.97c-7.81-7.81-20.474-7.811-28.286,0l-39.754,39.754V297.536c0-11.047-8.954-20.001-20.001-20.001
			c-11.047,0-20.001,8.954-20.001,20.001v146.188L196.24,403.97c-7.811-7.811-20.475-7.809-28.285,0
			c-7.811,7.811-7.811,20.476,0,28.286l73.898,73.898c7.642,7.642,20.35,7.935,28.285,0l73.898-73.898
			C351.848,424.445,351.848,411.78,344.036,403.97z"/>
	</g>
</g>
<g>
	<g>
		<path d="M506.211,241.921c-0.021-0.021-0.039-0.045-0.06-0.066l-73.898-73.898c-7.811-7.811-20.475-7.809-28.285,0
			c-7.811,7.811-7.811,20.476,0,28.286l39.754,39.753H297.534c-11.047,0-20.001,8.954-20.001,20.001s8.954,20.001,20.001,20.001
			H443.72l-39.754,39.753c-7.811,7.811-7.811,20.476,0,28.286c7.812,7.811,20.475,7.809,28.285,0l73.898-73.898
			C513.962,262.331,513.917,249.698,506.211,241.921z"/>
	</g>
</g>
<g>
	<g>
		<path d="M214.457,235.997H68.271l39.754-39.753c7.811-7.811,7.811-20.476,0-28.286c-7.811-7.811-20.475-7.811-28.286,0
			L5.84,241.854c-7.718,7.718-7.855,20.431,0,28.286l73.898,73.898c7.809,7.81,20.473,7.81,28.285,0
			c7.811-7.811,7.811-20.476,0-28.286l-39.753-39.753h146.187c11.047,0,20.001-8.954,20.001-20.001
			C234.458,244.952,225.504,235.997,214.457,235.997z"/>
	</g>
</g>
<g>
</g>
<g>
</g>
<g>
</g>
<g>
</g>
<g>
</g>
<g>
</g>
<g>
</g>
<g>
</g>
<g>
</g>
<g>
</g>
<g>
</g>
<g>
</g>
<g>
</g>
<g>
</g>
<g>
</g>
</svg>
