<?xml version="1.0" encoding="iso-8859-1"?>
<!-- Generator: Adobe Illustrator 19.0.0, SVG Export Plug-In . SVG Version: 6.00 Build 0)  -->
<svg version="1.1" id="Capa_1" xmlns="http://www.w3.org/2000/svg" xmlns:xlink="http://www.w3.org/1999/xlink" x="0px" y="0px"
	 viewBox="0 0 512 512" style="enable-background:new 0 0 512 512;" xml:space="preserve">
<g>
	<g>
		<path d="M508.493,366.752l-236-344.064C268.764,17.25,262.594,14,256,14s-12.764,3.25-16.493,8.687l-236,344.064
			c-4.199,6.121-4.661,14.066-1.202,20.633c3.459,6.569,10.272,10.68,17.695,10.68h472c7.423,0,14.236-4.111,17.695-10.679
			C513.155,380.817,512.692,372.873,508.493,366.752z M57.971,358.064L256,69.358l198.029,288.706H57.971z"/>
	</g>
</g>
<g>
	<g>
		<path d="M492,458H20c-11.046,0-20,8.954-20,20c0,11.046,8.954,20,20,20h472c11.046,0,20-8.954,20-20
			C512,466.954,503.046,458,492,458z"/>
	</g>
</g>
<g>
</g>
<g>
</g>
<g>
</g>
<g>
</g>
<g>
</g>
<g>
</g>
<g>
</g>
<g>
</g>
<g>
</g>
<g>
</g>
<g>
</g>
<g>
</g>
<g>
</g>
<g>
</g>
<g>
</g>
</svg>
