<?xml version="1.0" encoding="iso-8859-1"?>
<!-- Generator: Adobe Illustrator 19.0.0, SVG Export Plug-In . SVG Version: 6.00 Build 0)  -->
<svg version="1.1" id="Capa_1" xmlns="http://www.w3.org/2000/svg" xmlns:xlink="http://www.w3.org/1999/xlink" x="0px" y="0px"
	 viewBox="0 0 512 512" style="enable-background:new 0 0 512 512;" xml:space="preserve">
<g>
	<g>
		<path d="M432,0H80C35.888,0,0,35.888,0,80c0,10.222,0,346.163,0,352v1.245C0,476.671,35.329,512,78.755,512H80h352h1.245
			C476.671,512,512,476.671,512,433.245V432c0-5.838,0-341.788,0-352C512,35.888,476.112,0,432,0z M472,432
			c0,22.056-17.944,40-40,40H80c-22.056,0-40-17.944-40-40v-1.585L169.102,238.84l105.996,157.295
			c3.718,5.517,9.935,8.823,16.586,8.823c6.652,0,12.868-3.308,16.586-8.823l70.313-104.346L472,430.414V432z M472,358.836
			l-76.831-114.013c-3.718-5.517-9.935-8.823-16.586-8.823c-6.652,0-12.868,3.308-16.586,8.823l-70.313,104.346L185.688,191.875
			c-3.718-5.516-9.934-8.823-16.586-8.823c-6.651,0-12.868,3.307-16.586,8.823L40,358.839V80c0-22.056,17.944-40,40-40h352
			c22.056,0,40,17.944,40,40V358.836z"/>
	</g>
</g>
<g>
</g>
<g>
</g>
<g>
</g>
<g>
</g>
<g>
</g>
<g>
</g>
<g>
</g>
<g>
</g>
<g>
</g>
<g>
</g>
<g>
</g>
<g>
</g>
<g>
</g>
<g>
</g>
<g>
</g>
</svg>
