<?xml version="1.0" encoding="iso-8859-1"?>
<!-- Generator: Adobe Illustrator 19.0.0, SVG Export Plug-In . SVG Version: 6.00 Build 0)  -->
<svg version="1.1" id="Capa_1" xmlns="http://www.w3.org/2000/svg" xmlns:xlink="http://www.w3.org/1999/xlink" x="0px" y="0px"
	 viewBox="0 0 512 512" style="enable-background:new 0 0 512 512;" xml:space="preserve">
<g>
	<g>
		<path d="M509.398,246.136C458.65,156.628,363.825,97,256,97C148.211,97,53.364,156.603,2.602,246.135
			c-3.469,6.12-3.469,13.61,0,19.729C53.35,355.372,148.175,415,256,415c107.789,0,202.636-59.603,253.398-149.135
			C512.867,259.745,512.867,252.255,509.398,246.136z M256,375c-89.069,0-167.695-47.22-212.716-119
			C88.288,184.247,166.895,137,256,137c89.069,0,167.695,47.22,212.716,119C423.712,327.753,345.105,375,256,375z"/>
	</g>
</g>
<g>
	<g>
		<path d="M256,186c-38.598,0-70,31.402-70,70c0,38.598,31.402,70,70,70c38.598,0,70-31.402,70-70C326,217.402,294.598,186,256,186z
			 M256,286c-16.542,0-30-13.458-30-30s13.458-30,30-30s30,13.458,30,30S272.542,286,256,286z"/>
	</g>
</g>
<g>
</g>
<g>
</g>
<g>
</g>
<g>
</g>
<g>
</g>
<g>
</g>
<g>
</g>
<g>
</g>
<g>
</g>
<g>
</g>
<g>
</g>
<g>
</g>
<g>
</g>
<g>
</g>
<g>
</g>
</svg>
