<?xml version="1.0" encoding="iso-8859-1"?>
<!-- Generator: Adobe Illustrator 19.0.0, SVG Export Plug-In . SVG Version: 6.00 Build 0)  -->
<svg version="1.1" id="Capa_1" xmlns="http://www.w3.org/2000/svg" xmlns:xlink="http://www.w3.org/1999/xlink" x="0px" y="0px"
	 viewBox="0 0 511.999 511.999" style="enable-background:new 0 0 511.999 511.999;" xml:space="preserve">
<g>
	<g>
		<path d="M509.398,246.135C458.636,156.603,363.789,97.001,256,97.001c-21.882,0-43.591,2.502-64.725,7.375l-38.467-66.4
			c-5.537-9.558-17.773-12.814-27.331-7.28c-9.558,5.537-12.817,17.773-7.28,27.331l33.831,58.397
			C88.855,140.871,36.076,187.095,2.602,246.135c-3.469,6.119-3.469,13.609,0,19.728C53.364,355.396,148.211,414.998,256,414.998
			c21.882,0,43.591-2.502,64.725-7.375l38.467,66.4c5.538,9.56,17.776,12.815,27.331,7.28c9.558-5.537,12.817-17.773,7.28-27.331
			l-33.831-58.397c63.172-24.447,115.95-70.671,149.425-129.711C512.867,259.745,512.867,252.255,509.398,246.135z M256,374.998
			c-89.105,0-167.712-47.247-212.716-118.999c29.679-47.319,74.643-84.975,129.081-104.468l32.729,56.495
			C193.27,220.567,186,237.445,186,256c0,38.597,31.402,69.999,70,69.999c5.618,0,11.077-0.684,16.315-1.939l27.27,47.071
			C285.255,373.688,270.673,374.998,256,374.998z M226,256c0-3.253,0.527-6.383,1.489-9.318l22.416,38.693
			C236.275,282.551,226,270.454,226,256z M262.095,226.624C275.725,229.448,286,241.546,286,256c0,3.252-0.527,6.382-1.489,9.317
			L262.095,226.624z M339.634,360.467l-32.729-56.495C318.73,291.432,326,274.554,326,256c0-38.598-31.402-70-70-70
			c-5.618,0-11.077,0.684-16.315,1.939l-27.27-47.071C226.745,138.31,241.327,137,256,137c89.105,0,167.712,47.247,212.716,118.999
			C439.036,303.319,394.073,340.975,339.634,360.467z"/>
	</g>
</g>
<g>
</g>
<g>
</g>
<g>
</g>
<g>
</g>
<g>
</g>
<g>
</g>
<g>
</g>
<g>
</g>
<g>
</g>
<g>
</g>
<g>
</g>
<g>
</g>
<g>
</g>
<g>
</g>
<g>
</g>
</svg>
