<?xml version="1.0" encoding="iso-8859-1"?>
<!-- Generator: Adobe Illustrator 19.0.0, SVG Export Plug-In . SVG Version: 6.00 Build 0)  -->
<svg version="1.1" id="Capa_1" xmlns="http://www.w3.org/2000/svg" xmlns:xlink="http://www.w3.org/1999/xlink" x="0px" y="0px"
	 viewBox="0 0 512 512" style="enable-background:new 0 0 512 512;" xml:space="preserve">
<g>
	<g>
		<path d="M256,63C117.293,63,0,136.053,0,233.216c0,50.652,32.299,97.345,89.112,129.537v66.246c0,8.1,4.885,15.399,12.373,18.488
			c7.48,3.089,16.097,1.359,21.81-4.387l48.657-48.934c26.946,6.152,55.163,9.268,84.048,9.268c138.632,0,256-73.015,256-170.217
			C512,135.954,394.554,63,256,63z M256,363.434c-29.514,0-58.165-3.609-85.158-10.727c-6.902-1.824-14.249,0.176-19.282,5.237
			l-22.447,22.575v-29.732c0-7.536-4.236-14.433-10.958-17.84C68.486,307.774,40,271.423,40,233.216C40,162.267,137.792,103,256,103
			c118.232,0,216,59.282,216,130.217C472,304.164,374.215,363.434,256,363.434z"/>
	</g>
</g>
<g>
	<g>
		<circle cx="256" cy="233.25" r="27"/>
	</g>
</g>
<g>
	<g>
		<circle cx="138.49" cy="233.25" r="27"/>
	</g>
</g>
<g>
	<g>
		<circle cx="373.51" cy="233.25" r="27"/>
	</g>
</g>
<g>
</g>
<g>
</g>
<g>
</g>
<g>
</g>
<g>
</g>
<g>
</g>
<g>
</g>
<g>
</g>
<g>
</g>
<g>
</g>
<g>
</g>
<g>
</g>
<g>
</g>
<g>
</g>
<g>
</g>
</svg>
