<?xml version="1.0" encoding="iso-8859-1"?>
<!-- Generator: Adobe Illustrator 19.0.0, SVG Export Plug-In . SVG Version: 6.00 Build 0)  -->
<svg version="1.1" id="Capa_1" xmlns="http://www.w3.org/2000/svg" xmlns:xlink="http://www.w3.org/1999/xlink" x="0px" y="0px"
	 viewBox="0 0 512 512" style="enable-background:new 0 0 512 512;" xml:space="preserve">
<g>
	<g>
		<path d="M433.206,256l62.443-58.311c5.67-5.294,7.767-13.391,5.379-20.772c-2.388-7.382-8.83-12.717-16.527-13.688l-85.196-10.744
			l16.013-83.653c1.454-7.599-1.605-15.354-7.854-19.915c-6.25-4.561-14.57-5.107-21.362-1.405l-75.399,41.104l-36.635-77.191
			C270.757,4.447,263.724,0,256,0c-7.724,0-14.757,4.447-18.069,11.425l-36.635,77.191l-75.399-41.104
			c-6.793-3.703-15.113-3.158-21.362,1.405c-6.25,4.561-9.308,12.316-7.854,19.915l16.014,83.653l-85.196,10.744
			c-7.697,0.971-14.139,6.306-16.527,13.688c-2.388,7.38-0.291,15.477,5.379,20.772L78.794,256l-62.443,58.311
			c-5.67,5.294-7.767,13.391-5.379,20.772c2.388,7.382,8.83,12.717,16.527,13.688l85.196,10.744l-16.013,83.653
			c-1.454,7.599,1.605,15.354,7.854,19.915c6.25,4.561,14.57,5.107,21.362,1.405l75.399-41.104l36.635,77.191
			C241.243,507.553,248.276,512,256,512c7.724,0,14.757-4.447,18.068-11.425l36.635-77.191l75.399,41.104
			c6.791,3.701,15.112,3.157,21.362-1.405c6.25-4.561,9.308-12.316,7.854-19.915l-16.013-83.653l85.196-10.744
			c7.697-0.971,14.139-6.306,16.527-13.688c2.388-7.38,0.291-15.477-5.379-20.772L433.206,256z M373.152,322.496
			c-11.442,1.444-19.312,12.262-17.141,23.603l12.06,63.002l-56.794-30.962c-10.073-5.491-22.717-1.392-27.641,8.985L256,445.354
			l-27.636-58.23c-4.921-10.369-17.554-14.482-27.641-8.985l-56.794,30.962l12.06-63.002c2.168-11.331-5.688-22.158-17.141-23.603
			l-64.011-8.072l46.911-43.807c8.458-7.897,8.467-21.328,0-29.234l-46.911-43.807l64.011-8.072
			c11.442-1.444,19.312-12.262,17.141-23.603l-12.06-63.002l56.794,30.962c10.073,5.492,22.717,1.39,27.641-8.985L256,66.646
			l27.636,58.23c4.918,10.364,17.555,14.482,27.641,8.985l56.794-30.962l-12.06,63.002c-2.168,11.331,5.688,22.158,17.141,23.603
			l64.011,8.072l-46.911,43.807c-8.458,7.897-8.467,21.328,0,29.234l46.911,43.807L373.152,322.496z"/>
	</g>
</g>
<g>
</g>
<g>
</g>
<g>
</g>
<g>
</g>
<g>
</g>
<g>
</g>
<g>
</g>
<g>
</g>
<g>
</g>
<g>
</g>
<g>
</g>
<g>
</g>
<g>
</g>
<g>
</g>
<g>
</g>
</svg>
