<?xml version="1.0" encoding="iso-8859-1"?>
<!-- Generator: Adobe Illustrator 19.0.0, SVG Export Plug-In . SVG Version: 6.00 Build 0)  -->
<svg version="1.1" id="Capa_1" xmlns="http://www.w3.org/2000/svg" xmlns:xlink="http://www.w3.org/1999/xlink" x="0px" y="0px"
	 viewBox="0 0 512 512" style="enable-background:new 0 0 512 512;" xml:space="preserve">
<g>
	<g>
		<path d="M462,127H334.755V65c0-11.046-8.954-20-20-20h-117.51c-11.046,0-20,8.954-20,20v62H50c-27.57,0-50,22.43-50,50v240
			c0,27.57,22.43,50,50,50h412c27.57,0,50-22.43,50-50V177C512,149.43,489.57,127,462,127z M217.245,85h77.511v42h-77.511V85z
			 M472,417c0,5.514-4.486,10-10,10H50c-5.514,0-10-4.486-10-10V317h137.245v21c0,11.046,8.954,20,20,20h117.511
			c11.046,0,20-8.954,20-20v-21H472V417z M472,277H314.755c-11.046,0-20,8.954-20,20v21h-77.511v-21c0-11.046-8.954-20-20-20H40V177
			c0-5.514,4.486-10,10-10c2.179,0,406.397,0,412,0c5.514,0,10,4.486,10,10V277z"/>
	</g>
</g>
<g>
</g>
<g>
</g>
<g>
</g>
<g>
</g>
<g>
</g>
<g>
</g>
<g>
</g>
<g>
</g>
<g>
</g>
<g>
</g>
<g>
</g>
<g>
</g>
<g>
</g>
<g>
</g>
<g>
</g>
</svg>
