<?xml version="1.0" encoding="iso-8859-1"?>
<!-- Generator: Adobe Illustrator 19.0.0, SVG Export Plug-In . SVG Version: 6.00 Build 0)  -->
<svg version="1.1" id="Capa_1" xmlns="http://www.w3.org/2000/svg" xmlns:xlink="http://www.w3.org/1999/xlink" x="0px" y="0px"
	 viewBox="0 0 512 512" style="enable-background:new 0 0 512 512;" xml:space="preserve">
<g>
	<g>
		<path d="M256,0C114.508,0,0,114.497,0,256c0,141.492,114.497,256,256,256c141.492,0,256-114.497,256-256
			C512,114.508,397.503,0,256,0z M256,472c-119.385,0-216-96.608-216-216c0-119.385,96.608-216,216-216
			c119.385,0,216,96.608,216,216C472,375.385,375.392,472,256,472z"/>
	</g>
</g>
<g>
	<g>
		<path d="M102.257,236H72.88c-11.046,0-20,8.954-20,20s8.954,20,20,20h29.377c11.046,0,20-8.954,20-20
			C122.257,244.954,113.303,236,102.257,236z"/>
	</g>
</g>
<g>
	<g>
		<path d="M440.1,236h-29.378c-11.046,0-20,8.954-20,20s8.954,20,20,20H440.1c11.046,0,20-8.954,20-20
			C460.1,244.954,451.146,236,440.1,236z"/>
	</g>
</g>
<g>
	<g>
		<path d="M357.805,79.669c-9.566-5.521-21.797-2.245-27.32,7.32l-14.688,25.441c-5.523,9.566-2.245,21.798,7.32,27.32
			c9.569,5.523,21.799,2.244,27.32-7.32l14.688-25.441C370.648,97.423,367.37,85.191,357.805,79.669z"/>
	</g>
</g>
<g>
	<g>
		<path d="M314.197,155.199c-9.566-5.524-21.798-2.245-27.32,7.32l-28.334,49.077c-0.842-0.048-1.689-0.078-2.543-0.078
			c-24.527,0-44.481,19.954-44.481,44.481c0,24.527,19.954,44.481,44.481,44.481c24.527,0,44.481-19.954,44.481-44.481
			c0-9-2.695-17.378-7.308-24.387l28.344-49.094C327.041,172.953,323.763,160.722,314.197,155.199z"/>
	</g>
</g>
<g>
	<g>
		<path d="M196.204,112.43l-14.688-25.441c-5.522-9.567-17.755-12.843-27.32-7.32c-9.565,5.523-12.844,17.754-7.32,27.32
			l14.688,25.441c5.525,9.571,17.76,12.84,27.32,7.32C198.449,134.228,201.728,121.996,196.204,112.43z"/>
	</g>
</g>
<g>
</g>
<g>
</g>
<g>
</g>
<g>
</g>
<g>
</g>
<g>
</g>
<g>
</g>
<g>
</g>
<g>
</g>
<g>
</g>
<g>
</g>
<g>
</g>
<g>
</g>
<g>
</g>
<g>
</g>
</svg>
