<?xml version="1.0" encoding="iso-8859-1"?>
<!-- Generator: Adobe Illustrator 19.0.0, SVG Export Plug-In . SVG Version: 6.00 Build 0)  -->
<svg version="1.1" id="Capa_1" xmlns="http://www.w3.org/2000/svg" xmlns:xlink="http://www.w3.org/1999/xlink" x="0px" y="0px"
	 viewBox="0 0 511.999 511.999" style="enable-background:new 0 0 511.999 511.999;" xml:space="preserve">
<g>
	<g>
		<path d="M403.889,203.213c-3.668-5.783-10.04-9.287-16.889-9.287H276V20c0-9.363-6.496-17.472-15.633-19.516
			c-9.142-2.043-18.47,2.524-22.46,10.994l-131,278.071c-2.919,6.195-2.465,13.453,1.204,19.236
			c3.668,5.783,10.04,9.287,16.889,9.287h111v173.925c0,9.363,6.496,17.473,15.633,19.518c9.199,2.054,18.494-2.577,22.46-10.995
			l131-278.071C408.012,216.254,407.558,208.996,403.889,203.213z M276,402.615V298.072c0-11.046-8.954-20-20-20h-99.47L236,109.383
			v104.543c0,11.046,8.954,20,20,20h99.47L276,402.615z"/>
	</g>
</g>
<g>
</g>
<g>
</g>
<g>
</g>
<g>
</g>
<g>
</g>
<g>
</g>
<g>
</g>
<g>
</g>
<g>
</g>
<g>
</g>
<g>
</g>
<g>
</g>
<g>
</g>
<g>
</g>
<g>
</g>
</svg>
