<?xml version="1.0" encoding="iso-8859-1"?>
<!-- Generator: Adobe Illustrator 19.0.0, SVG Export Plug-In . SVG Version: 6.00 Build 0)  -->
<svg version="1.1" id="Capa_1" xmlns="http://www.w3.org/2000/svg" xmlns:xlink="http://www.w3.org/1999/xlink" x="0px" y="0px"
	 viewBox="0 0 512 512" style="enable-background:new 0 0 512 512;" xml:space="preserve">
<g>
	<g>
		<path d="M304.959,0h-97.925c-11.046,0-20,8.954-20,20v67.429c0,11.046,8.954,20,20,20h97.925c11.046,0,20-8.954,20-20V20
			C324.959,8.954,316.005,0,304.959,0z M284.959,67.429h-57.925V40h57.925V67.429z"/>
	</g>
</g>
<g>
	<g>
		<path d="M304.959,134.857h-97.925c-11.046,0-20,8.954-20,20v67.429c0,11.046,8.954,20,20,20h97.925c11.046,0,20-8.954,20-20
			v-67.429C324.959,143.811,316.005,134.857,304.959,134.857z M284.959,202.286h-57.925v-27.429h57.925V202.286z"/>
	</g>
</g>
<g>
	<g>
		<path d="M304.959,269.714h-97.925c-11.046,0-20,8.954-20,20v67.429c0,11.046,8.954,20,20,20h97.925c11.046,0,20-8.955,20-20
			v-67.429C324.959,278.668,316.005,269.714,304.959,269.714z M284.959,337.143h-57.925v-27.429h57.925V337.143z"/>
	</g>
</g>
<g>
	<g>
		<path d="M304.959,404.571h-97.925c-11.046,0-20,8.954-20,20V492c0,11.046,8.954,20,20,20h97.925c11.046,0,20-8.954,20-20v-67.429
			C324.959,413.525,316.005,404.571,304.959,404.571z M284.959,472h-57.925v-27.429h57.925V472z"/>
	</g>
</g>
<g>
	<g>
		<path d="M117.925,269.714H20c-11.046,0-20,8.954-20,20v67.429c0,11.046,8.954,20,20,20h97.925c11.046,0,20-8.955,20-20v-67.429
			C137.925,278.668,128.971,269.714,117.925,269.714z M97.925,337.143H40v-27.429h57.925V337.143z"/>
	</g>
</g>
<g>
	<g>
		<path d="M117.925,404.571H20c-11.046,0-20,8.954-20,20V492c0,11.046,8.954,20,20,20h97.925c11.046,0,20-8.954,20-20v-67.429
			C137.925,413.525,128.971,404.571,117.925,404.571z M97.925,472H40v-27.429h57.925V472z"/>
	</g>
</g>
<g>
	<g>
		<path d="M492,134.857h-97.926c-11.046,0-20,8.954-20,20v67.429c0,11.046,8.954,20,20,20H492c11.046,0,20-8.954,20-20v-67.429
			C512,143.811,503.046,134.857,492,134.857z M472,202.286h-57.926v-27.429H472V202.286z"/>
	</g>
</g>
<g>
	<g>
		<path d="M492,269.714h-97.926c-11.046,0-20,8.954-20,20v67.429c0,11.046,8.954,20,20,20H492c11.046,0,20-8.955,20-20v-67.429
			C512,278.668,503.046,269.714,492,269.714z M472,337.143h-57.926v-27.429H472V337.143z"/>
	</g>
</g>
<g>
	<g>
		<path d="M492,404.571h-97.926c-11.046,0-20,8.954-20,20V492c0,11.046,8.954,20,20,20H492c11.046,0,20-8.954,20-20v-67.429
			C512,413.525,503.046,404.571,492,404.571z M472,472h-57.926v-27.429H472V472z"/>
	</g>
</g>
<g>
</g>
<g>
</g>
<g>
</g>
<g>
</g>
<g>
</g>
<g>
</g>
<g>
</g>
<g>
</g>
<g>
</g>
<g>
</g>
<g>
</g>
<g>
</g>
<g>
</g>
<g>
</g>
<g>
</g>
</svg>
