<?xml version="1.0" encoding="iso-8859-1"?>
<!-- Generator: Adobe Illustrator 19.0.0, SVG Export Plug-In . SVG Version: 6.00 Build 0)  -->
<svg version="1.1" id="Capa_1" xmlns="http://www.w3.org/2000/svg" xmlns:xlink="http://www.w3.org/1999/xlink" x="0px" y="0px"
	 viewBox="0 0 512 512" style="enable-background:new 0 0 512 512;" xml:space="preserve">
<g>
	<g>
		<path d="M433.66,274.081V221c0-99.804-79.698-181-177.66-181S78.34,121.196,78.34,221v53.081C33.673,283.502,0,323.826,0,372
			c0,55.141,44.115,100,98.34,100c11.046,0,20-8.954,20-20c0-10.778,0-224.272,0-231c0-77.748,61.754-141,137.66-141
			s137.66,63.252,137.66,141c0,7.418,0,220.55,0,231c0,11.046,8.954,20,20,20c54.225,0,98.34-44.859,98.34-100
			C512,323.826,478.327,283.502,433.66,274.081z M78.34,428.368C55.993,419.954,40,397.861,40,372
			c0-25.861,15.993-47.954,38.34-56.368V428.368z M433.66,428.368V315.632C456.007,324.046,472,346.139,472,372
			C472,397.861,456.007,419.954,433.66,428.368z"/>
	</g>
</g>
<g>
</g>
<g>
</g>
<g>
</g>
<g>
</g>
<g>
</g>
<g>
</g>
<g>
</g>
<g>
</g>
<g>
</g>
<g>
</g>
<g>
</g>
<g>
</g>
<g>
</g>
<g>
</g>
<g>
</g>
</svg>
